<svg width="111" height="100" viewBox="0 0 111 100" fill="none" xmlns="http://www.w3.org/2000/svg">
<path d="M9.81559 78.4986C8.68236 78.5019 7.55965 78.2939 6.51203 77.8867C5.46441 77.4795 4.51256 76.8811 3.71125 76.126C2.90993 75.3709 2.27496 74.4739 1.84286 73.4867C1.41076 72.4994 1.19006 71.4414 1.19346 70.3735V0.606346H69.1281V70.3735C18.3798 74.8605 14.532 78.4986 9.81559 78.4986Z" fill="white"/>
<path d="M9.81559 79.105C8.5981 79.1074 7.3921 78.8832 6.2668 78.4453C5.1415 78.0073 4.11906 77.3643 3.25817 76.553C2.39727 75.7417 1.71487 74.7782 1.25013 73.7178C0.785396 72.6573 0.547471 71.5208 0.550016 70.3735V0.606355C0.550016 0.445539 0.617806 0.29131 0.738475 0.177597C0.859144 0.0638831 1.02281 0 1.19346 0H69.1281C69.2988 0 69.4624 0.0638831 69.5831 0.177597C69.7038 0.29131 69.7716 0.445539 69.7716 0.606355V70.3735C69.7722 70.5253 69.7124 70.6718 69.604 70.7841C69.4956 70.8963 69.3465 70.9662 69.186 70.9799C32.7479 74.1875 20.619 76.9403 14.7894 78.2561C12.473 78.7897 11.1926 79.105 9.81559 79.105ZM1.8369 1.21271V70.3735C1.83435 71.3616 2.03899 72.3404 2.43906 73.2537C2.83912 74.167 3.42673 74.9968 4.16813 75.6955C4.90953 76.3941 5.7901 76.9479 6.75927 77.3249C7.72844 77.7019 8.7671 77.8947 9.81559 77.8923C11.1025 77.8923 12.2993 77.6134 14.5192 77.1101C20.3487 75.7883 32.4455 73.0415 68.5169 69.8339V1.21271H1.8369Z" fill="#093F68"/>
<path d="M26.9698 16.9476H88.0968C91.4257 16.9492 94.6178 18.1961 96.9716 20.4143C99.3255 22.6325 100.649 25.6406 100.65 28.7776V99.3937H42.5218C36.1774 99.3937 35.5597 94.5974 35.5597 92.7783V32.7068C31.609 25.5033 26.9698 16.9476 26.9698 16.9476Z" fill="white"/>
<path d="M100.65 100H42.5218C35.4439 100 34.9163 94.47 34.9163 92.7783V32.8584C30.9848 25.6791 26.3971 17.2205 26.3971 17.2205C26.3406 17.1283 26.3109 17.0237 26.3109 16.9173C26.3109 16.8109 26.3406 16.7063 26.3971 16.6141C26.4551 16.5267 26.5357 16.4547 26.6314 16.4048C26.7271 16.355 26.8347 16.3289 26.944 16.3291H88.0711C91.5757 16.3291 94.937 17.6403 97.4164 19.9745C99.8958 22.3087 101.29 25.4749 101.294 28.7776V99.3937C101.294 99.5545 101.226 99.7087 101.105 99.8224C100.985 99.9361 100.821 100 100.65 100ZM28.0186 17.5358C29.3055 19.9006 32.9473 26.5947 36.1324 32.4097C36.1793 32.496 36.2036 32.5916 36.2032 32.6886V92.7601C36.2032 94.5792 36.8466 98.7691 42.5218 98.7691H100.007V28.7776C100.002 25.7997 98.7438 22.9453 96.5087 20.8402C94.2737 18.7351 91.244 17.5511 88.0839 17.5479L28.0186 17.5358Z" fill="#093F68"/>
<path d="M100.65 99.3937H102.864C104.706 99.3921 106.472 98.7014 107.773 97.4735C109.075 96.2455 109.807 94.5808 109.807 92.845V86.1387H47.3283V92.7662C47.3283 96.0708 45.1342 99.2542 41.0354 99.2542L100.65 99.3937Z" fill="#57B3BD"/>
<path d="M102.864 100H100.65L41.0354 99.8605C40.8648 99.8605 40.7011 99.7966 40.5804 99.6829C40.4598 99.5692 40.392 99.415 40.392 99.2542C40.392 99.0934 40.4598 98.9391 40.5804 98.8254C40.7011 98.7117 40.8648 98.6478 41.0354 98.6478C44.8961 98.6478 46.6849 95.616 46.6849 92.7662V86.1387C46.6849 85.9779 46.7526 85.8237 46.8733 85.71C46.994 85.5963 47.1576 85.5324 47.3283 85.5324H109.807C109.977 85.5324 110.141 85.5963 110.262 85.71C110.382 85.8237 110.45 85.9779 110.45 86.1387V92.845C110.448 94.7411 109.649 96.5591 108.227 97.9004C106.804 99.2417 104.876 99.9968 102.864 100ZM100.65 98.7873H102.864C104.535 98.7841 106.136 98.1568 107.317 97.0429C108.497 95.929 109.161 94.4195 109.163 92.845V86.7451H47.9717V92.7662C48.0023 93.8916 47.7576 95.0086 47.2566 96.0306C46.7556 97.0526 46.0118 97.9523 45.0827 98.6599L100.65 98.7873Z" fill="#093F68"/>
<path d="M9.81559 78.4987H35.5533V25.0424C35.5847 23.9604 35.3857 22.8833 34.968 21.875C34.5503 20.8666 33.9223 19.9474 33.1213 19.1715C32.3202 18.3957 31.3623 17.779 30.3041 17.358C29.2458 16.9369 28.1088 16.7199 26.9601 16.7199C25.8114 16.7199 24.6744 16.9369 23.6162 17.358C22.558 17.779 21.6 18.3957 20.799 19.1715C19.9979 19.9474 19.37 20.8666 18.9523 21.875C18.5345 22.8833 18.3355 23.9604 18.3669 25.0424V70.3735C18.3755 72.5194 17.4796 74.5806 15.876 76.1042C14.2725 77.6278 12.0927 78.489 9.81559 78.4987Z" fill="#57B3BD"/>
<path d="M35.5533 79.105H9.81559C9.64494 79.105 9.48128 79.0411 9.36061 78.9274C9.23994 78.8137 9.17215 78.6595 9.17215 78.4987C9.17215 78.3379 9.23994 78.1836 9.36061 78.0699C9.48128 77.9562 9.64494 77.8923 9.81559 77.8923C11.9221 77.8811 13.938 77.0834 15.4215 75.674C16.905 74.2647 17.7351 72.3586 17.7299 70.3735V25.0424C17.6974 23.8801 17.9122 22.7233 18.3618 21.6404C18.8113 20.5576 19.4865 19.5705 20.3474 18.7375C21.2083 17.9045 22.2375 17.2425 23.3744 16.7904C24.5112 16.3383 25.7326 16.1054 26.9666 16.1054C28.2005 16.1054 29.4219 16.3383 30.5587 16.7904C31.6956 17.2425 32.7248 17.9045 33.5857 18.7375C34.4467 19.5705 35.1218 20.5576 35.5714 21.6404C36.0209 22.7233 36.2357 23.8801 36.2032 25.0424V78.4987C36.2032 78.5788 36.1863 78.6582 36.1536 78.7321C36.1209 78.8061 36.0729 78.8732 36.0124 78.9296C35.952 78.986 35.8803 79.0305 35.8015 79.0606C35.7227 79.0907 35.6383 79.1058 35.5533 79.105ZM14.4741 77.8923H34.9099V25.0424C34.9401 24.0407 34.7568 23.0434 34.3709 22.1096C33.985 21.1758 33.4043 20.3244 32.6631 19.6058C31.9219 18.8871 31.0353 18.3159 30.0558 17.9258C29.0762 17.5357 28.0236 17.3348 26.9601 17.3348C25.8967 17.3348 24.8441 17.5357 23.8645 17.9258C22.8849 18.3159 21.9983 18.8871 21.2571 19.6058C20.5159 20.3244 19.9352 21.1758 19.5493 22.1096C19.1634 23.0434 18.9801 24.0407 19.0104 25.0424V70.3735C19.0149 71.8899 18.5993 73.3811 17.8049 74.6997C17.0105 76.0184 15.8646 77.1188 14.4806 77.8923H14.4741Z" fill="#093F68"/>
<path d="M89.4995 49.1814H48.2613C48.0906 49.1814 47.927 49.1175 47.8063 49.0038C47.6856 48.8901 47.6178 48.7359 47.6178 48.575V27.5042C47.6178 27.3434 47.6856 27.1892 47.8063 27.0755C47.927 26.9617 48.0906 26.8979 48.2613 26.8979C48.4319 26.8979 48.5956 26.9617 48.7163 27.0755C48.8369 27.1892 48.9047 27.3434 48.9047 27.5042V47.9687H89.4995C89.6702 47.9687 89.8338 48.0326 89.9545 48.1463C90.0752 48.26 90.143 48.4142 90.143 48.575C90.143 48.7359 90.0752 48.8901 89.9545 49.0038C89.8338 49.1175 89.6702 49.1814 89.4995 49.1814Z" fill="#093F68"/>
<path d="M60.0942 38.4429H54.0201V48.5751H60.0942V38.4429Z" fill="#F56132"/>
<path d="M60.0942 49.1814H54.0201C53.8494 49.1814 53.6858 49.1175 53.5651 49.0038C53.4444 48.8901 53.3767 48.7359 53.3767 48.5751V38.4429C53.3767 38.2821 53.4444 38.1278 53.5651 38.0141C53.6858 37.9004 53.8494 37.8365 54.0201 37.8365H60.0942C60.2648 37.8365 60.4285 37.9004 60.5492 38.0141C60.6698 38.1278 60.7376 38.2821 60.7376 38.4429V48.5751C60.7376 48.7359 60.6698 48.8901 60.5492 49.0038C60.4285 49.1175 60.2648 49.1814 60.0942 49.1814ZM54.6635 47.9687H59.4508V39.0492H54.6635V47.9687Z" fill="#093F68"/>
<path d="M71.9014 32.8947H65.8273V48.5751H71.9014V32.8947Z" fill="#FFBC0E"/>
<path d="M71.9014 49.1814H65.8273C65.6566 49.1814 65.493 49.1175 65.3723 49.0038C65.2516 48.8901 65.1838 48.7359 65.1838 48.575V32.8947C65.1838 32.7339 65.2516 32.5797 65.3723 32.466C65.493 32.3523 65.6566 32.2884 65.8273 32.2884H71.9014C72.072 32.2884 72.2357 32.3523 72.3564 32.466C72.477 32.5797 72.5448 32.7339 72.5448 32.8947V48.575C72.5448 48.7359 72.477 48.8901 72.3564 49.0038C72.2357 49.1175 72.072 49.1814 71.9014 49.1814ZM66.4707 47.9687H71.2579V33.5011H66.4707V47.9687Z" fill="#093F68"/>
<path d="M83.7085 26.8433H77.6344V48.5751H83.7085V26.8433Z" fill="#70CC40"/>
<path d="M83.7085 49.1814H77.6344C77.4638 49.1814 77.3001 49.1175 77.1795 49.0038C77.0588 48.8901 76.991 48.7359 76.991 48.5751V26.8433C76.991 26.6825 77.0588 26.5283 77.1795 26.4146C77.3001 26.3009 77.4638 26.237 77.6344 26.237H83.7085C83.8792 26.237 84.0429 26.3009 84.1635 26.4146C84.2842 26.5283 84.352 26.6825 84.352 26.8433V48.5751C84.352 48.7359 84.2842 48.8901 84.1635 49.0038C84.0429 49.1175 83.8792 49.1814 83.7085 49.1814ZM78.2779 47.9687H83.0651V27.4497H78.2779V47.9687Z" fill="#093F68"/>
<path d="M90.7671 58.7739H48.2291C48.0585 58.7739 47.8948 58.7101 47.7741 58.5963C47.6535 58.4826 47.5857 58.3284 47.5857 58.1676C47.5857 58.0068 47.6535 57.8525 47.7741 57.7388C47.8948 57.6251 48.0585 57.5612 48.2291 57.5612H90.7671C90.9378 57.5612 91.1014 57.6251 91.2221 57.7388C91.3428 57.8525 91.4105 58.0068 91.4105 58.1676C91.4105 58.3284 91.3428 58.4826 91.2221 58.5963C91.1014 58.7101 90.9378 58.7739 90.7671 58.7739Z" fill="#DFEAEF"/>
<path d="M90.7671 65.5409H48.2291C48.0585 65.5409 47.8948 65.477 47.7741 65.3633C47.6535 65.2495 47.5857 65.0953 47.5857 64.9345C47.5857 64.7737 47.6535 64.6195 47.7741 64.5057C47.8948 64.392 48.0585 64.3281 48.2291 64.3281H90.7671C90.9378 64.3281 91.1014 64.392 91.2221 64.5057C91.3428 64.6195 91.4105 64.7737 91.4105 64.9345C91.4105 65.0953 91.3428 65.2495 91.2221 65.3633C91.1014 65.477 90.9378 65.5409 90.7671 65.5409Z" fill="#DFEAEF"/>
<path d="M90.7671 72.3078H48.2291C48.0585 72.3078 47.8948 72.2439 47.7741 72.1302C47.6535 72.0165 47.5857 71.8623 47.5857 71.7014C47.5857 71.5406 47.6535 71.3864 47.7741 71.2727C47.8948 71.159 48.0585 71.0951 48.2291 71.0951H90.7671C90.9378 71.0951 91.1014 71.159 91.2221 71.2727C91.3428 71.3864 91.4105 71.5406 91.4105 71.7014C91.4105 71.8623 91.3428 72.0165 91.2221 72.1302C91.1014 72.2439 90.9378 72.3078 90.7671 72.3078Z" fill="#DFEAEF"/>
<path d="M78.902 79.105H48.2291C48.0585 79.105 47.8948 79.0411 47.7741 78.9274C47.6535 78.8137 47.5857 78.6595 47.5857 78.4986C47.5857 78.3378 47.6535 78.1836 47.7741 78.0699C47.8948 77.9562 48.0585 77.8923 48.2291 77.8923H78.902C79.0727 77.8923 79.2363 77.9562 79.357 78.0699C79.4777 78.1836 79.5455 78.3378 79.5455 78.4986C79.5455 78.6595 79.4777 78.8137 79.357 78.9274C79.2363 79.0411 79.0727 79.105 78.902 79.105Z" fill="#DFEAEF"/>
<path d="M30.2228 79.3614L26.8331 77.1047L22.4596 82.9386L25.8492 85.1953L30.2228 79.3614Z" fill="#093F68"/>
<path d="M25.863 85.8052C25.7312 85.8032 25.6031 85.763 25.4963 85.69L22.1053 83.4344C21.9666 83.3417 21.8725 83.2009 21.8436 83.043C21.8146 82.8851 21.8532 82.7228 21.9509 82.5916L26.3263 76.7524C26.4257 76.6226 26.5755 76.5351 26.743 76.509C26.9106 76.4829 27.0823 76.5202 27.2207 76.6129L30.6117 78.8685C30.7504 78.9601 30.8452 79.0996 30.8755 79.2566C30.9013 79.4158 30.8623 79.5783 30.7661 79.7114L26.3907 85.5445C26.3418 85.6099 26.2797 85.6655 26.2079 85.7082C26.1361 85.7509 26.0561 85.7797 25.9724 85.7931L25.863 85.8052ZM23.3729 82.7735L25.7086 84.3257L29.3441 79.4749L27.0019 77.9226L23.3729 82.7735Z" fill="#093F68"/>
<path d="M34.555 75.4006L29.3523 71.9369L24.9787 77.7707L30.1814 81.2344L34.555 75.4006Z" fill="white"/>
<path d="M30.1934 81.8397C30.0622 81.8394 29.9342 81.8013 29.8267 81.7305L24.6148 78.2683C24.5452 78.2223 24.4859 78.1638 24.4405 78.0962C24.395 78.0285 24.3642 77.9531 24.3498 77.8741C24.3355 77.7952 24.3378 77.7144 24.3568 77.6363C24.3758 77.5583 24.411 77.4845 24.4603 77.4194L28.8358 71.5862C28.9329 71.4555 29.0809 71.3662 29.2476 71.3376C29.4165 71.3132 29.5889 71.3501 29.7301 71.4407L34.9356 74.903C35.0743 74.9957 35.1684 75.1364 35.1974 75.2944C35.2263 75.4523 35.1877 75.6146 35.09 75.7458L30.7146 81.585C30.6554 81.6634 30.5772 81.7274 30.4866 81.7716C30.396 81.8159 30.2955 81.8392 30.1934 81.8397ZM25.9017 77.6255L30.0519 80.3905L33.6873 75.5397L29.5307 72.7747L25.9017 77.6255Z" fill="#093F68"/>
<path d="M26.2686 84.2409L23.2836 82.2536C22.6712 81.8459 21.824 81.9832 21.3913 82.5603L12.9376 93.8368C12.5049 94.4139 12.6506 95.2123 13.263 95.62L16.248 97.6073C16.8604 98.015 17.7076 97.8776 18.1403 97.3005L26.594 86.024C27.0267 85.4469 26.881 84.6486 26.2686 84.2409Z" fill="white"/>
<path d="M17.035 98.4538C16.6222 98.4548 16.2194 98.334 15.8832 98.1082L12.8977 96.1193C12.4656 95.8303 12.1729 95.3915 12.0836 94.8993C11.9943 94.4072 12.1159 93.9017 12.4215 93.4938L20.8764 82.2156C21.1821 81.8075 21.6472 81.5304 22.1696 81.4451C22.692 81.3599 23.2289 81.4734 23.6625 81.7609L26.648 83.7497C27.0811 84.0378 27.3752 84.4761 27.4657 84.9684C27.5561 85.4606 27.4357 85.9666 27.1306 86.3752L18.6758 97.6595C18.4892 97.9055 18.243 98.1059 17.9576 98.2441C17.6722 98.3822 17.3559 98.4541 17.035 98.4538ZM22.5107 82.6279C22.3958 82.6266 22.2823 82.6519 22.1802 82.7016C22.0781 82.7513 21.9905 82.8239 21.9252 82.9129L13.4703 94.1911C13.4158 94.2633 13.3769 94.3449 13.356 94.4313C13.335 94.5176 13.3323 94.6071 13.3481 94.6944C13.3637 94.7822 13.3979 94.8661 13.4488 94.9412C13.4997 95.0162 13.5661 95.0807 13.6441 95.131L16.6296 97.1198C16.7843 97.2212 16.9753 97.2609 17.1609 97.2303C17.3465 97.1996 17.5117 97.1011 17.6206 96.9561L26.0754 85.6779C26.13 85.6059 26.169 85.5244 26.1901 85.4382C26.2113 85.3519 26.2142 85.2626 26.1986 85.1753C26.1831 85.088 26.1494 85.0044 26.0996 84.9294C26.0497 84.8544 25.9846 84.7893 25.9081 84.7381L22.9161 82.7432C22.7962 82.6674 22.655 82.6272 22.5107 82.6279Z" fill="#093F68"/>
<path d="M46.4918 54.2991C44.0722 52.6876 41.1999 51.7884 38.238 51.7154C35.2761 51.6424 32.3578 52.3988 29.8521 53.8889C27.3465 55.3789 25.366 57.5358 24.1612 60.0867C22.9564 62.6375 22.5815 65.4678 23.0837 68.2195C23.586 70.9712 24.9429 73.5207 26.9829 75.5456C29.0229 77.5705 31.6543 78.9798 34.5443 79.5953C37.4343 80.2107 40.4531 80.0047 43.2189 79.0033C45.9846 78.0018 48.3731 76.25 50.0822 73.9692C52.3733 70.9119 53.2821 67.1222 52.6088 63.4336C51.9355 59.745 49.7353 56.4593 46.4918 54.2991Z" fill="white"/>
<path d="M37.8182 80.5421C35.3622 80.5428 32.9407 79.9976 30.7503 78.9508C28.5599 77.9039 26.6624 76.385 25.2119 74.5174C23.7614 72.6498 22.7987 70.4861 22.4022 68.202C22.0056 65.918 22.1863 63.578 22.9296 61.3721C23.6729 59.1663 24.9578 57.1567 26.6799 55.5066C28.4021 53.8566 30.513 52.6125 32.8411 51.8756C35.1693 51.1387 37.6491 50.9296 40.079 51.2653C42.509 51.6011 44.8207 52.4722 46.8264 53.8079C49.5335 55.6108 51.5616 58.1787 52.6171 61.14C53.6727 64.1013 53.7009 67.3022 52.6976 70.2796C51.6944 73.257 49.7118 75.8563 47.0368 77.7012C44.3618 79.5462 41.1331 80.5412 37.8182 80.5421ZM37.8632 52.3284C34.4457 52.3273 31.1404 53.4783 28.5449 55.5734C25.9493 57.6685 24.2347 60.5694 23.7108 63.752C23.187 66.9345 23.8886 70.1886 25.6888 72.9262C27.4889 75.6638 30.2689 77.7042 33.5262 78.6787C36.7836 79.6532 40.3034 79.4975 43.4496 78.2398C46.5957 76.982 49.1606 74.7051 50.6807 71.8206C52.2008 68.9362 52.5758 65.6344 51.7379 62.5121C50.9001 59.3899 48.9046 56.653 46.1122 54.7963C43.7001 53.1885 40.8177 52.3262 37.8632 52.3284Z" fill="#093F68"/>
<path d="M37.8439 75.4305C43.4729 75.4305 48.0361 71.1304 48.0361 65.8259C48.0361 60.5214 43.4729 56.2212 37.8439 56.2212C32.215 56.2212 27.6518 60.5214 27.6518 65.8259C27.6518 71.1304 32.215 75.4305 37.8439 75.4305Z" fill="white"/>
<path d="M37.8439 76.0369C35.7009 76.0369 33.6059 75.438 31.824 74.316C30.0421 73.194 28.6533 71.5992 27.8332 69.7334C27.0131 67.8676 26.7985 65.8145 27.2166 63.8338C27.6347 61.853 28.6667 60.0336 30.182 58.6056C31.6974 57.1775 33.6281 56.205 35.73 55.811C37.8319 55.417 40.0106 55.6193 41.9905 56.3921C43.9705 57.165 45.6628 58.4737 46.8534 60.1529C48.044 61.8321 48.6795 63.8063 48.6795 65.8259C48.6778 68.5335 47.5357 71.1298 45.504 73.0443C43.4723 74.9589 40.7172 76.0353 37.8439 76.0369ZM37.8439 56.8336C35.9551 56.8336 34.1087 57.3615 32.5383 58.3505C30.9679 59.3395 29.744 60.7452 29.0215 62.3898C28.299 64.0344 28.1103 65.844 28.4792 67.5896C28.8482 69.3353 29.7582 70.9386 31.0943 72.1968C32.4303 73.455 34.1323 74.3115 35.985 74.6581C37.8377 75.0046 39.7579 74.8255 41.5025 74.1435C43.2472 73.4615 44.7381 72.3072 45.7865 70.8267C46.835 69.3461 47.3939 67.6058 47.3926 65.8259C47.3892 63.4409 46.3819 61.1546 44.5917 59.4688C42.8016 57.7829 40.3748 56.8352 37.8439 56.8336Z" fill="#093F68"/>
<path d="M37.844 65.8258H48.0361C48.0321 67.8475 47.35 69.8162 46.0873 71.4505C44.8246 73.0849 43.0459 74.3012 41.0055 74.9257C38.9651 75.5501 36.7674 75.5507 34.7267 74.9274C32.6859 74.3041 30.9065 73.0887 29.6427 71.455C28.379 69.8214 27.6957 67.853 27.6905 65.8314C27.6852 63.8098 28.3583 61.8383 29.6136 60.1988C30.8688 58.5594 32.6419 57.3358 34.6795 56.7031C36.717 56.0704 38.9146 56.0609 40.9582 56.6759L37.844 65.8258Z" fill="#57B3BD"/>
<path d="M37.8439 76.0369C36.3992 76.07 34.962 75.8305 33.617 75.3325C32.2719 74.8344 31.0462 74.0878 30.0119 73.1366C28.9777 72.1854 28.1558 71.0489 27.5946 69.7939C27.0334 68.5389 26.7443 67.1907 26.7443 65.8289C26.7443 64.467 27.0334 63.1189 27.5946 61.8639C28.1558 60.6089 28.9777 59.4723 30.0119 58.5212C31.0462 57.57 32.2719 56.8234 33.617 56.3253C34.962 55.8272 36.3992 55.5877 37.8439 55.6209C38.9597 55.6186 40.069 55.7802 41.1319 56.0999C41.2128 56.124 41.2877 56.163 41.3525 56.2145C41.4173 56.266 41.4707 56.329 41.5096 56.4C41.5484 56.471 41.572 56.5485 41.579 56.6282C41.586 56.7078 41.5762 56.7879 41.5502 56.8639L38.7255 65.2195H48.0361C48.2067 65.2195 48.3704 65.2834 48.4911 65.3971C48.6117 65.5108 48.6795 65.665 48.6795 65.8259C48.6761 68.533 47.5334 71.1283 45.5021 73.0426C43.4708 74.9568 40.7167 76.0337 37.8439 76.0369ZM37.8439 56.8336C35.9823 56.8328 34.1611 57.3448 32.6042 58.3066C31.0474 59.2684 29.8228 60.6382 29.0812 62.2472C28.3396 63.8563 28.1133 65.6346 28.4301 67.3633C28.7469 69.092 29.5931 70.6958 30.8644 71.9772C32.1358 73.2587 33.7769 74.162 35.586 74.576C37.395 74.9901 39.293 74.8967 41.0464 74.3075C42.7999 73.7184 44.3324 72.659 45.4553 71.2598C46.5783 69.8606 47.2427 68.1826 47.3669 66.4322H37.8439C37.7404 66.4367 37.6373 66.4176 37.5433 66.3766C37.4493 66.3355 37.3673 66.2736 37.3041 66.1962C37.2409 66.1188 37.1985 66.0282 37.1805 65.932C37.1624 65.8359 37.1693 65.7371 37.2005 65.6439L40.096 57.0943C39.3593 56.922 38.6031 56.8345 37.8439 56.8336Z" fill="#093F68"/>
</svg>
