<svg width="136" height="25" viewBox="0 0 136 25" fill="none" xmlns="http://www.w3.org/2000/svg">
<path d="M23.7351 24.9937C23.5656 24.9934 23.3978 24.9592 23.2418 24.8932L18.6755 22.933C17.2632 23.4728 15.7617 23.7455 14.2484 23.7372C12.1095 23.7995 10.001 23.2219 8.19662 22.0792C6.39222 20.9365 4.97515 19.2815 4.12925 17.3289C4.00404 17.0299 3.99992 16.6943 4.11776 16.3923C4.2356 16.0903 4.46629 15.8451 4.7617 15.708C4.91701 15.6494 5.08242 15.6218 5.24848 15.6267C5.41454 15.6316 5.578 15.669 5.72953 15.7366C5.88105 15.8043 6.01767 15.901 6.13158 16.0211C6.24549 16.1413 6.33446 16.2825 6.39341 16.4368C7.06304 17.9293 8.17184 19.1855 9.57391 20.04C10.976 20.8945 12.6056 21.3073 14.2484 21.2241C15.5767 21.2255 16.8907 20.9516 18.1063 20.42C18.2659 20.3508 18.4382 20.3151 18.6123 20.3151C18.7864 20.3151 18.9587 20.3508 19.1183 20.42L21.7872 21.5508L21.0662 19.0378C21.0135 18.8552 21.0032 18.663 21.0361 18.4758C21.069 18.2887 21.1441 18.1113 21.2559 17.9572C22.0572 16.9216 22.5008 15.6569 22.5208 14.351C22.4831 13.2107 22.1516 12.0991 21.5581 11.1224C20.9647 10.1457 20.129 9.33646 19.1309 8.77202C18.9897 8.68456 18.8672 8.57034 18.7705 8.43587C18.6737 8.30139 18.6046 8.14931 18.567 7.98829C18.4911 7.6631 18.5483 7.32128 18.7261 7.03802C18.9039 6.75475 19.1877 6.55326 19.5151 6.47785C19.8424 6.40244 20.1865 6.45931 20.4717 6.63593C21.8219 7.42695 22.9465 8.54728 23.7389 9.89078C24.5313 11.2343 24.9654 12.7565 25 14.3133C24.9948 15.9288 24.53 17.51 23.6592 18.8745L24.9241 23.3979C24.9835 23.6218 24.9795 23.8576 24.9126 24.0793C24.8456 24.301 24.7183 24.5001 24.5447 24.6545C24.3243 24.86 24.0371 24.9804 23.7351 24.9937Z" fill="#F2F2F5"/>
<path d="M21.1447 7.55414C20.139 3.19426 15.7391 -0.00634766 10.6855 -0.00634766C4.78961 -0.00634766 0 4.22753 0 9.44426C0.00515212 11.0644 0.467093 12.65 1.33254 14.0184L0.0754269 18.5547C0.01639 18.7791 0.0203656 19.0156 0.0869149 19.2379C0.153464 19.4603 0.28 19.6599 0.452562 19.8147C0.671574 20.0209 0.95699 20.1416 1.25712 20.155C1.42563 20.1546 1.59236 20.1203 1.74739 20.0541L6.34844 18.0884C7.73242 18.622 9.20265 18.8954 10.6855 18.8949C16.5814 18.8949 21.371 14.661 21.371 9.44426C21.3718 8.80738 21.2958 8.17274 21.1447 7.55414Z" fill="#FF694E"/>
<path d="M41.44 20.9937V4.19365H47.824C49.76 4.19365 51.264 4.58565 52.336 5.36965C53.424 6.13765 53.968 7.22565 53.968 8.63365C53.968 10.6657 52.912 11.9057 50.8 12.3537C51.968 12.4977 52.888 12.8897 53.56 13.5297C54.232 14.1697 54.568 15.0657 54.568 16.2177C54.568 17.7057 54.008 18.8737 52.888 19.7217C51.768 20.5697 50.184 20.9937 48.136 20.9937H41.44ZM47.92 7.02565H45.04V11.1057H47.92C48.688 11.1057 49.288 10.9217 49.72 10.5537C50.152 10.1857 50.368 9.68965 50.368 9.06565C50.368 8.44165 50.152 7.94565 49.72 7.57765C49.288 7.20965 48.688 7.02565 47.92 7.02565ZM48.16 13.8897H45.04V18.1377H48.16C49.024 18.1377 49.688 17.9537 50.152 17.5857C50.632 17.2177 50.872 16.7057 50.872 16.0497C50.872 15.3617 50.632 14.8337 50.152 14.4657C49.672 14.0817 49.008 13.8897 48.16 13.8897ZM64.9293 14.8257V8.65765H68.3133V20.9937H65.3133L65.0013 19.5057C64.1053 20.5937 62.8973 21.1377 61.3773 21.1377C59.9373 21.1377 58.7613 20.7057 57.8493 19.8417C56.9373 18.9617 56.4813 17.5137 56.4813 15.4977V8.65765H59.8653V15.0417C59.8653 16.1617 60.0573 16.9937 60.4413 17.5377C60.8253 18.0657 61.4333 18.3297 62.2653 18.3297C63.1133 18.3297 63.7693 18.0337 64.2333 17.4417C64.6973 16.8337 64.9293 15.9617 64.9293 14.8257ZM74.002 6.80965C73.634 7.16165 73.17 7.33765 72.61 7.33765C72.05 7.33765 71.578 7.16165 71.194 6.80965C70.826 6.44165 70.642 5.98565 70.642 5.44165C70.642 4.89765 70.826 4.44165 71.194 4.07365C71.578 3.70565 72.05 3.52165 72.61 3.52165C73.17 3.52165 73.634 3.70565 74.002 4.07365C74.386 4.44165 74.578 4.89765 74.578 5.44165C74.578 5.98565 74.386 6.44165 74.002 6.80965ZM70.906 20.9937V8.65765H74.314V20.9937H70.906ZM76.8882 20.9937V4.19365H80.2722V20.9937H76.8882ZM91.8224 10.1937V4.19365H95.2064V20.9937H92.2544L91.9184 19.2897C90.9744 20.5217 89.7104 21.1377 88.1264 21.1377C86.4464 21.1377 85.0704 20.5617 83.9984 19.4097C82.9264 18.2577 82.3904 16.7217 82.3904 14.8017C82.3904 12.9137 82.9264 11.3937 83.9984 10.2417C85.0704 9.08965 86.4384 8.51365 88.1024 8.51365C89.7024 8.51365 90.9424 9.07365 91.8224 10.1937ZM86.6624 17.3937C87.2224 18.0497 87.9584 18.3777 88.8704 18.3777C89.7824 18.3777 90.5104 18.0577 91.0544 17.4177C91.5984 16.7617 91.8704 15.9057 91.8704 14.8497C91.8704 13.7777 91.5984 12.9137 91.0544 12.2577C90.5104 11.6017 89.7824 11.2737 88.8704 11.2737C87.9584 11.2737 87.2224 11.6017 86.6624 12.2577C86.1184 12.9137 85.8464 13.7697 85.8464 14.8257C85.8464 15.8817 86.1184 16.7377 86.6624 17.3937Z" fill="white"/>
<path d="M98.0697 20.9937V4.19365H104.454C106.39 4.19365 107.894 4.58565 108.966 5.36965C110.054 6.13765 110.598 7.22565 110.598 8.63365C110.598 10.6657 109.542 11.9057 107.43 12.3537C108.598 12.4977 109.518 12.8897 110.19 13.5297C110.862 14.1697 111.198 15.0657 111.198 16.2177C111.198 17.7057 110.638 18.8737 109.518 19.7217C108.398 20.5697 106.814 20.9937 104.766 20.9937H98.0697ZM104.55 7.02565H101.67V11.1057H104.55C105.318 11.1057 105.918 10.9217 106.35 10.5537C106.782 10.1857 106.998 9.68965 106.998 9.06565C106.998 8.44165 106.782 7.94565 106.35 7.57765C105.918 7.20965 105.318 7.02565 104.55 7.02565ZM104.79 13.8897H101.67V18.1377H104.79C105.654 18.1377 106.318 17.9537 106.782 17.5857C107.262 17.2177 107.502 16.7057 107.502 16.0497C107.502 15.3617 107.262 14.8337 106.782 14.4657C106.302 14.0817 105.638 13.8897 104.79 13.8897ZM124.079 19.4097C122.895 20.5617 121.319 21.1377 119.351 21.1377C117.383 21.1377 115.807 20.5617 114.623 19.4097C113.439 18.2577 112.847 16.7297 112.847 14.8257C112.847 12.9217 113.439 11.3937 114.623 10.2417C115.807 9.08965 117.383 8.51365 119.351 8.51365C121.319 8.51365 122.895 9.08965 124.079 10.2417C125.263 11.3937 125.855 12.9217 125.855 14.8257C125.855 16.7297 125.263 18.2577 124.079 19.4097ZM119.351 18.3777C120.295 18.3777 121.039 18.0497 121.583 17.3937C122.143 16.7377 122.423 15.8817 122.423 14.8257C122.423 13.7697 122.143 12.9137 121.583 12.2577C121.039 11.6017 120.295 11.2737 119.351 11.2737C118.423 11.2737 117.679 11.6017 117.119 12.2577C116.575 12.9137 116.303 13.7697 116.303 14.8257C116.303 15.8817 116.575 16.7377 117.119 17.3937C117.679 18.0497 118.423 18.3777 119.351 18.3777ZM128.799 17.4657V11.5137H126.759V8.65765H128.799V5.20165H132.183V8.65765H135.015V11.5137H132.183V16.9137C132.183 17.3457 132.271 17.6577 132.447 17.8497C132.639 18.0417 132.959 18.1377 133.407 18.1377H135.087V20.9937H132.327C129.975 20.9937 128.799 19.8177 128.799 17.4657Z" fill="#FF694E"/>
</svg>
