<svg width="95" height="100" viewBox="0 0 95 100" fill="none" xmlns="http://www.w3.org/2000/svg">
<path d="M69.2849 0.664009H21.9277C18.3008 0.664009 15.3606 3.60418 15.3606 7.23107V92.7756C15.3606 96.4025 18.3008 99.3426 21.9277 99.3426H69.2849C72.9118 99.3426 75.852 96.4025 75.852 92.7756V7.23107C75.852 3.60418 72.9118 0.664009 69.2849 0.664009Z" fill="#57B3BD"/>
<path d="M69.2783 100H21.9277C20.0104 99.9982 18.1722 99.2358 16.8165 97.8801C15.4608 96.5244 14.6984 94.6862 14.6966 92.7689V7.23107C14.6984 5.31381 15.4608 3.47559 16.8165 2.11988C18.1722 0.764169 20.0104 0.00175815 21.9277 0H69.2783C71.1967 -8.07344e-07 73.0366 0.761633 74.3938 2.11753C75.7509 3.47343 76.5142 5.31266 76.516 7.23107V92.7689C76.5142 94.6873 75.7509 96.5266 74.3938 97.8825C73.0366 99.2384 71.1967 100 69.2783 100ZM21.9277 1.32802C20.3626 1.32978 18.8622 1.95227 17.7555 3.05893C16.6489 4.16559 16.0264 5.66603 16.0246 7.23107V92.7689C16.0264 94.334 16.6489 95.8344 17.7555 96.9411C18.8622 98.0477 20.3626 98.6702 21.9277 98.672H69.2783C70.8445 98.672 72.3466 98.0503 73.4547 96.9434C74.5628 95.8366 75.1862 94.3351 75.188 92.7689V7.23107C75.1862 5.66488 74.5628 4.16343 73.4547 3.05659C72.3466 1.94974 70.8445 1.32802 69.2783 1.32802H21.9277Z" fill="#093F68"/>
<path d="M75.852 8.88447H15.3606V84.4157H75.852V8.88447Z" fill="white"/>
<path d="M75.852 85.0797H15.3606C15.1845 85.0797 15.0156 85.0097 14.8911 84.8852C14.7666 84.7607 14.6966 84.5918 14.6966 84.4157V8.88446C14.6966 8.70836 14.7666 8.53946 14.8911 8.41494C15.0156 8.29041 15.1845 8.22045 15.3606 8.22045H75.852C76.0281 8.22045 76.197 8.29041 76.3215 8.41494C76.446 8.53946 76.516 8.70836 76.516 8.88446V84.4157C76.516 84.5918 76.446 84.7607 76.3215 84.8852C76.197 85.0097 76.0281 85.0797 75.852 85.0797ZM16.0246 83.7517H75.188V9.54847H16.0246V83.7517Z" fill="#093F68"/>
<path d="M68.9197 60.8632H46.0047C44.7358 60.8632 43.7072 61.8918 43.7072 63.1607V66.826C43.7072 68.0949 44.7358 69.1235 46.0047 69.1235H68.9197C70.1886 69.1235 71.2172 68.0949 71.2172 66.826V63.1607C71.2172 61.8918 70.1886 60.8632 68.9197 60.8632Z" fill="#DFEAEF"/>
<path d="M68.9263 69.7875H46.0047C45.2193 69.7875 44.466 69.4755 43.9106 68.9201C43.3552 68.3647 43.0432 67.6115 43.0432 66.826V63.154C43.045 62.3698 43.3578 61.6182 43.913 61.0643C44.4681 60.5103 45.2204 60.1992 46.0047 60.1992H68.9263C69.7095 60.201 70.46 60.5128 71.0138 61.0666C71.5676 61.6204 71.8794 62.3709 71.8812 63.154V66.826C71.8812 67.6103 71.5701 68.3626 71.0161 68.9178C70.4622 69.473 69.7106 69.7858 68.9263 69.7875ZM46.0047 61.5272C45.5726 61.5272 45.1582 61.6984 44.852 62.0033C44.5459 62.3082 44.373 62.722 44.3712 63.154V66.826C44.3712 67.2592 44.5433 67.6747 44.8497 67.9811C45.156 68.2874 45.5715 68.4595 46.0047 68.4595H68.9263C69.3584 68.4577 69.7722 68.2849 70.0771 67.9787C70.382 67.6726 70.5532 67.2581 70.5532 66.826V63.154C70.5532 62.7226 70.3818 62.3088 70.0767 62.0037C69.7716 61.6986 69.3578 61.5272 68.9263 61.5272H46.0047Z" fill="#DFEAEF"/>
<path d="M68.6209 13.9907H46.3035C44.8696 13.9907 43.7072 15.1531 43.7072 16.587V21.992C43.7072 23.4259 44.8696 24.5883 46.3035 24.5883H68.6209C70.0548 24.5883 71.2172 23.4259 71.2172 21.992V16.587C71.2172 15.1531 70.0548 13.9907 68.6209 13.9907Z" fill="#DFEAEF"/>
<path d="M68.6209 25.2457H46.3101C45.4448 25.2457 44.6149 24.9024 44.0024 24.2912C43.3899 23.6799 43.045 22.8507 43.0432 21.9854V16.587C43.045 15.7217 43.3899 14.8924 44.0024 14.2812C44.6149 13.67 45.4448 13.3267 46.3101 13.3267H68.6209C69.4856 13.3267 70.3149 13.6702 70.9263 14.2816C71.5377 14.893 71.8812 15.7223 71.8812 16.587V21.9854C71.8812 22.8501 71.5377 23.6793 70.9263 24.2908C70.3149 24.9022 69.4856 25.2457 68.6209 25.2457ZM46.3101 14.6215C46.0558 14.6206 45.8039 14.67 45.5687 14.7667C45.3335 14.8634 45.1197 15.0056 44.9395 15.1851C44.7594 15.3646 44.6165 15.5779 44.5189 15.8128C44.4214 16.0477 44.3712 16.2995 44.3712 16.5538V21.9522C44.373 22.4653 44.578 22.9567 44.9415 23.3189C45.3049 23.6811 45.7971 23.8845 46.3101 23.8845H68.6209C69.1328 23.8827 69.6233 23.6786 69.9853 23.3166C70.3473 22.9546 70.5514 22.4641 70.5532 21.9522V16.587C70.5532 16.0745 70.3496 15.583 69.9872 15.2207C69.6249 14.8583 69.1334 14.6547 68.6209 14.6547L46.3101 14.6215Z" fill="#DFEAEF"/>
<path d="M43.5611 48.8978H20.5133C19.2811 48.8978 18.2823 49.8966 18.2823 51.1288V54.4555C18.2823 55.6877 19.2811 56.6866 20.5133 56.6866H43.5611C44.7933 56.6866 45.7922 55.6877 45.7922 54.4555V51.1288C45.7922 49.8966 44.7933 48.8978 43.5611 48.8978Z" fill="#DFEAEF"/>
<path d="M43.5612 57.3506H20.5133C20.1332 57.3506 19.7567 57.2757 19.4054 57.1302C19.0542 56.9847 18.735 56.7715 18.4662 56.5026C18.1974 56.2338 17.9841 55.9147 17.8386 55.5634C17.6931 55.2122 17.6183 54.8357 17.6183 54.4555V51.1355C17.62 50.3688 17.9258 49.6341 18.4686 49.0926C19.0113 48.5511 19.7467 48.247 20.5133 48.247H43.5612C44.3278 48.247 45.0632 48.5511 45.6059 49.0926C46.1487 49.6341 46.4545 50.3688 46.4562 51.1355V54.4555C46.4562 55.2233 46.1512 55.9597 45.6083 56.5026C45.0653 57.0456 44.329 57.3506 43.5612 57.3506ZM20.5133 49.5617C20.0989 49.5617 19.7013 49.7259 19.4076 50.0184C19.1139 50.3108 18.948 50.7077 18.9463 51.1222V54.4422C18.9463 54.8578 19.1114 55.2564 19.4053 55.5503C19.6991 55.8442 20.0977 56.0093 20.5133 56.0093H43.5612C43.9768 56.0093 44.3754 55.8442 44.6692 55.5503C44.9631 55.2564 45.1282 54.8578 45.1282 54.4422V51.1222C45.1265 50.7077 44.9606 50.3108 44.6669 50.0184C44.3732 49.7259 43.9756 49.5617 43.5612 49.5617H20.5133Z" fill="#DFEAEF"/>
<path d="M42.4124 26.2749H21.6621C19.7955 26.2749 18.2823 27.7881 18.2823 29.6547V40.7835C18.2823 42.6502 19.7955 44.1634 21.6621 44.1634H42.4124C44.279 44.1634 45.7922 42.6502 45.7922 40.7835V29.6547C45.7922 27.7881 44.279 26.2749 42.4124 26.2749Z" fill="#DFEAEF"/>
<path d="M42.4124 44.8274H21.6621C20.5896 44.8274 19.561 44.4013 18.8027 43.643C18.0443 42.8846 17.6183 41.856 17.6183 40.7835V29.6481C17.62 28.5767 18.0468 27.5499 18.805 26.793C19.5632 26.036 20.5907 25.6109 21.6621 25.6109H42.4124C43.4838 25.6109 44.5113 26.036 45.2695 26.793C46.0277 27.5499 46.4545 28.5767 46.4562 29.6481V40.7835C46.4562 41.856 46.0302 42.8846 45.2718 43.643C44.5135 44.4013 43.4849 44.8274 42.4124 44.8274ZM21.6621 26.9389C20.943 26.9389 20.2532 27.2241 19.7441 27.732C19.2349 28.2399 18.948 28.929 18.9463 29.6481V40.7835C18.948 41.5033 19.2347 42.193 19.7437 42.702C20.2526 43.2109 20.9424 43.4976 21.6621 43.4993H42.4124C43.1327 43.4993 43.8235 43.2132 44.3328 42.7039C44.8421 42.1946 45.1282 41.5038 45.1282 40.7835V29.6481C45.1265 28.929 44.8396 28.2399 44.3304 27.732C43.8213 27.2241 43.1315 26.9389 42.4124 26.9389H21.6621Z" fill="#DFEAEF"/>
<path d="M51.9609 5.56441H42.2398C42.0636 5.56441 41.8948 5.49445 41.7702 5.36993C41.6457 5.2454 41.5757 5.07651 41.5757 4.9004C41.5757 4.72429 41.6457 4.5554 41.7702 4.43087C41.8948 4.30635 42.0636 4.23639 42.2398 4.23639H51.9609C52.137 4.23639 52.3059 4.30635 52.4304 4.43087C52.5549 4.5554 52.6249 4.72429 52.6249 4.9004C52.6249 5.07651 52.5549 5.2454 52.4304 5.36993C52.3059 5.49445 52.137 5.56441 51.9609 5.56441Z" fill="#093F68"/>
<path d="M39.2451 5.56441C39.069 5.56441 38.9001 5.49445 38.7755 5.36993C38.651 5.2454 38.5811 5.07651 38.5811 4.9004C38.5778 4.85619 38.5778 4.8118 38.5811 4.7676L38.6209 4.64144L38.6807 4.52855L38.767 4.42895C38.8914 4.30528 39.0597 4.23586 39.2351 4.23586C39.4105 4.23586 39.5788 4.30528 39.7032 4.42895L39.7896 4.52855L39.8493 4.64144L39.8892 4.7676C39.8924 4.8118 39.8924 4.85619 39.8892 4.9004C39.8867 5.07555 39.8151 5.24261 39.69 5.36521C39.631 5.42929 39.5584 5.47923 39.4775 5.51129C39.4038 5.54287 39.3251 5.56087 39.2451 5.56441Z" fill="#093F68"/>
<path d="M45.6063 94.6946C47.3189 94.6946 48.7072 93.3062 48.7072 91.5936C48.7072 89.881 47.3189 88.4927 45.6063 88.4927C43.8937 88.4927 42.5054 89.881 42.5054 91.5936C42.5054 93.3062 43.8937 94.6946 45.6063 94.6946Z" fill="#093F68"/>
<path d="M42.1468 13.9907H4.2982C3.38184 13.9907 2.50291 14.3543 1.85432 15.0016C1.20572 15.649 0.840473 16.5272 0.838715 17.4436V38.3267C0.840473 39.243 1.20572 40.1213 1.85432 40.7686C2.50291 41.416 3.38184 41.7795 4.2982 41.7795H26.9941L31.8148 50.1793V41.7795H42.1535C42.6074 41.7804 43.0571 41.6917 43.4768 41.5186C43.8965 41.3455 44.2779 41.0913 44.5993 40.7706C44.9206 40.4499 45.1755 40.0689 45.3495 39.6496C45.5234 39.2302 45.6129 38.7807 45.6129 38.3267V17.4635C45.6156 17.0072 45.5278 16.555 45.3546 16.1329C45.1814 15.7108 44.9263 15.3272 44.604 15.0043C44.2817 14.6814 43.8986 14.4256 43.4769 14.2516C43.0551 14.0776 42.603 13.9889 42.1468 13.9907Z" fill="#FFBC0E"/>
<path d="M31.8082 50.8433C31.6905 50.8431 31.575 50.8116 31.4735 50.7521C31.372 50.6926 31.2881 50.6072 31.2305 50.5046L26.5824 42.4436H4.27164C3.17917 42.4436 2.13134 42.01 1.35823 41.2382C0.58511 40.4663 0.149892 39.4192 0.148132 38.3267V17.4635C0.149892 16.371 0.58511 15.3239 1.35823 14.552C2.13134 13.7801 3.17917 13.3466 4.27164 13.3466H42.1202C43.2127 13.3466 44.2605 13.7801 45.0337 14.552C45.8068 15.3239 46.242 16.371 46.2437 17.4635V38.3466C46.242 39.4391 45.8068 40.4862 45.0337 41.2581C44.2605 42.03 43.2127 42.4635 42.1202 42.4635H32.4722V50.1992C32.4773 50.3491 32.4315 50.4963 32.3423 50.6169C32.2531 50.7375 32.1257 50.8243 31.9808 50.8632C31.9226 50.8659 31.8643 50.8591 31.8082 50.8433ZM4.29156 14.6547C3.5513 14.6547 2.84126 14.9483 2.3172 15.4711C1.79314 15.994 1.49783 16.7033 1.49607 17.4436V38.3267C1.49783 39.067 1.79314 39.7763 2.3172 40.2991C2.84126 40.8219 3.5513 41.1155 4.29156 41.1155H26.9874C27.1051 41.1157 27.2206 41.1472 27.3221 41.2067C27.4236 41.2662 27.5075 41.3516 27.5651 41.4542L31.1442 47.6892V41.7795C31.1442 41.6034 31.2141 41.4345 31.3386 41.31C31.4632 41.1855 31.6321 41.1155 31.8082 41.1155H42.1468C42.8871 41.1155 43.5971 40.8219 44.1212 40.2991C44.6452 39.7763 44.9405 39.067 44.9423 38.3267V17.4635C44.9405 16.7232 44.6452 16.0139 44.1212 15.4911C43.5971 14.9682 42.8871 14.6746 42.1468 14.6746L4.29156 14.6547Z" fill="#093F68"/>
<path d="M56.2039 32.5697H90.3672C91.1949 32.5697 91.9887 32.8985 92.574 33.4838C93.1593 34.0691 93.4881 34.8629 93.4881 35.6906V54.5286C93.4881 55.3563 93.1593 56.15 92.574 56.7353C91.9887 57.3206 91.1949 57.6494 90.3672 57.6494H69.8825L65.5332 65.2258V57.6494H56.2371C55.827 57.6503 55.4208 57.5701 55.0418 57.4136C54.6627 57.2571 54.3183 57.0272 54.0284 56.7373C53.7384 56.4473 53.5086 56.1029 53.352 55.7239C53.1955 55.3449 53.1154 54.9386 53.1162 54.5286V35.6906C53.1145 34.8681 53.4381 34.0782 54.0166 33.4935C54.5951 32.9088 55.3814 32.5767 56.2039 32.5697Z" fill="#F56132"/>
<path d="M65.5332 65.8898H65.3606C65.2157 65.8508 65.0883 65.764 64.9991 65.6435C64.9099 65.5229 64.8641 65.3757 64.8692 65.2257V58.3134H56.2371C55.2338 58.3116 54.2722 57.9123 53.5627 57.2029C52.8533 56.4935 52.454 55.5318 52.4522 54.5285V35.6906C52.4522 34.6868 52.851 33.7241 53.5608 33.0143C54.2706 32.3045 55.2333 31.9057 56.2371 31.9057H90.4004C91.4042 31.9057 92.3669 32.3045 93.0767 33.0143C93.7865 33.7241 94.1853 34.6868 94.1853 35.6906V54.5285C94.1836 55.5318 93.7842 56.4935 93.0748 57.2029C92.3654 57.9123 91.4037 58.3116 90.4004 58.3134H70.2676L66.1109 65.5578C66.0524 65.6591 65.9682 65.7432 65.8668 65.8015C65.7653 65.8598 65.6503 65.8902 65.5332 65.8898ZM56.2371 33.2337C55.5855 33.2337 54.9606 33.4926 54.4999 33.9533C54.0391 34.4141 53.7803 35.039 53.7803 35.6906V54.5285C53.7803 55.1801 54.0391 55.805 54.4999 56.2658C54.9606 56.7265 55.5855 56.9854 56.2371 56.9854H65.5332C65.7094 56.9854 65.8782 57.0553 66.0028 57.1799C66.1273 57.3044 66.1973 57.4733 66.1973 57.6494V62.7357L69.3048 57.3174C69.3633 57.2161 69.4476 57.132 69.549 57.0737C69.6505 57.0154 69.7655 56.9849 69.8825 56.9854H90.3672C91.0188 56.9854 91.6438 56.7265 92.1045 56.2658C92.5652 55.805 92.8241 55.1801 92.8241 54.5285V35.6906C92.8241 35.039 92.5652 34.4141 92.1045 33.9533C91.6438 33.4926 91.0188 33.2337 90.3672 33.2337H56.2371Z" fill="#093F68"/>
<path d="M68.601 80.2059H22.5917C22.1481 80.2258 21.705 80.1557 21.2892 79.9996C20.8735 79.8436 20.4936 79.605 20.1726 79.2981C19.8517 78.9912 19.5962 78.6225 19.4217 78.2142C19.2471 77.8059 19.1571 77.3664 19.1571 76.9223C19.1571 76.4782 19.2471 76.0388 19.4217 75.6304C19.5962 75.2221 19.8517 74.8534 20.1726 74.5465C20.4936 74.2396 20.8735 74.001 21.2892 73.845C21.705 73.689 22.1481 73.6188 22.5917 73.6388H68.581C69.4263 73.6768 70.2244 74.0394 70.8092 74.651C71.3939 75.2626 71.7202 76.0762 71.7202 76.9223C71.7202 77.7685 71.3939 78.582 70.8092 79.1937C70.2244 79.8053 69.4263 80.1678 68.581 80.2059H68.601ZM22.5917 74.9668C22.3253 74.9513 22.0585 74.9903 21.8078 75.0816C21.557 75.1728 21.3276 75.3144 21.1335 75.4975C20.9394 75.6806 20.7848 75.9014 20.6791 76.1464C20.5734 76.3915 20.5188 76.6555 20.5188 76.9223C20.5188 77.1892 20.5734 77.4532 20.6791 77.6982C20.7848 77.9432 20.9394 78.164 21.1335 78.3472C21.3276 78.5303 21.557 78.6718 21.8078 78.763C22.0585 78.8543 22.3253 78.8934 22.5917 78.8778H68.581C69.08 78.8487 69.5489 78.63 69.8919 78.2665C70.2348 77.903 70.4259 77.4221 70.4259 76.9223C70.4259 76.4225 70.2348 75.9417 69.8919 75.5781C69.5489 75.2146 69.08 74.9959 68.581 74.9668H22.5917Z" fill="#DFEAEF"/>
<path d="M37.0539 22.1115H9.38453C9.20842 22.1115 9.03953 22.0416 8.915 21.9171C8.79048 21.7925 8.72052 21.6236 8.72052 21.4475C8.72052 21.2714 8.79048 21.1025 8.915 20.978C9.03953 20.8535 9.20842 20.7835 9.38453 20.7835H37.0539C37.23 20.7835 37.3989 20.8535 37.5234 20.978C37.6479 21.1025 37.7179 21.2714 37.7179 21.4475C37.7179 21.6236 37.6479 21.7925 37.5234 21.9171C37.3989 22.0416 37.23 22.1115 37.0539 22.1115Z" fill="#093F68"/>
<path d="M37.0539 27.4768H9.38453C9.20842 27.4768 9.03953 27.4068 8.915 27.2823C8.79048 27.1578 8.72052 26.9889 8.72052 26.8128C8.72052 26.6366 8.79048 26.4678 8.915 26.3432C9.03953 26.2187 9.20842 26.1487 9.38453 26.1487H37.0539C37.23 26.1487 37.3989 26.2187 37.5234 26.3432C37.6479 26.4678 37.7179 26.6366 37.7179 26.8128C37.7179 26.9889 37.6479 27.1578 37.5234 27.2823C37.3989 27.4068 37.23 27.4768 37.0539 27.4768Z" fill="#093F68"/>
<path d="M28.694 32.8486H9.38453C9.20842 32.8486 9.03953 32.7786 8.915 32.6541C8.79048 32.5296 8.72052 32.3607 8.72052 32.1846C8.72052 32.0085 8.79048 31.8396 8.915 31.7151C9.03953 31.5905 9.20842 31.5206 9.38453 31.5206H28.694C28.8701 31.5206 29.039 31.5905 29.1635 31.7151C29.288 31.8396 29.358 32.0085 29.358 32.1846C29.358 32.3607 29.288 32.5296 29.1635 32.6541C29.039 32.7786 28.8701 32.8486 28.694 32.8486Z" fill="#093F68"/>
<path d="M87.1202 39.5153H59.4509C59.2748 39.5153 59.1059 39.4453 58.9814 39.3208C58.8569 39.1963 58.7869 39.0274 58.7869 38.8513C58.7869 38.6752 58.8569 38.5063 58.9814 38.3817C59.1059 38.2572 59.2748 38.1873 59.4509 38.1873H87.1202C87.2963 38.1873 87.4652 38.2572 87.5898 38.3817C87.7143 38.5063 87.7842 38.6752 87.7842 38.8513C87.7842 39.0274 87.7143 39.1963 87.5898 39.3208C87.4652 39.4453 87.2963 39.5153 87.1202 39.5153Z" fill="#093F68"/>
<path d="M87.1202 44.8805H59.4509C59.2748 44.8805 59.1059 44.8105 58.9814 44.686C58.8569 44.5615 58.7869 44.3926 58.7869 44.2165C58.7869 44.0404 58.8569 43.8715 58.9814 43.7469C59.1059 43.6224 59.2748 43.5525 59.4509 43.5525H87.1202C87.2963 43.5525 87.4652 43.6224 87.5898 43.7469C87.7143 43.8715 87.7842 44.0404 87.7842 44.2165C87.7842 44.3926 87.7143 44.5615 87.5898 44.686C87.4652 44.8105 87.2963 44.8805 87.1202 44.8805Z" fill="#093F68"/>
<path d="M78.7603 50.2523H59.4509C59.2748 50.2523 59.1059 50.1824 58.9814 50.0578C58.8569 49.9333 58.7869 49.7644 58.7869 49.5883C58.7869 49.4122 58.8569 49.2433 58.9814 49.1188C59.1059 48.9943 59.2748 48.9243 59.4509 48.9243H78.7603C78.9364 48.9243 79.1053 48.9943 79.2299 49.1188C79.3544 49.2433 79.4243 49.4122 79.4243 49.5883C79.4243 49.7644 79.3544 49.9333 79.2299 50.0578C79.1053 50.1824 78.9364 50.2523 78.7603 50.2523Z" fill="#093F68"/>
</svg>
