<svg width="128" height="27" viewBox="0 0 128 27" fill="none" xmlns="http://www.w3.org/2000/svg">
<path fill-rule="evenodd" clip-rule="evenodd" d="M8.00878 0V6.01859L10.4927 4.92652L20 10.7485V21.6043L10 27L0 21.6043V4.74379L8.00878 0ZM2.41288 5.96558V20.1944L10 24.2882L17.5871 20.1944V12.0713L10.3067 7.61295L5.5959 9.68405V4.63157L2.41288 5.96558Z" fill="#FF694E"/>
<path fill-rule="evenodd" clip-rule="evenodd" d="M8.00878 6.01859V0L5.5959 1.4292V9.68405L10.3067 7.61295L18.157 12.4202L19.4301 10.3995L10.4927 4.92652L8.00878 6.01859Z" fill="#FF694E"/>
<path d="M31.0805 19.5V6.9H35.8685C37.3205 6.9 38.4485 7.194 39.2525 7.782C40.0685 8.358 40.4765 9.174 40.4765 10.23C40.4765 11.754 39.6845 12.684 38.1005 13.02C38.9765 13.128 39.6665 13.422 40.1705 13.902C40.6745 14.382 40.9265 15.054 40.9265 15.918C40.9265 17.034 40.5065 17.91 39.6665 18.546C38.8265 19.182 37.6385 19.5 36.1025 19.5H31.0805ZM35.9405 9.024H33.7805V12.084H35.9405C36.5165 12.084 36.9665 11.946 37.2905 11.67C37.6145 11.394 37.7765 11.022 37.7765 10.554C37.7765 10.086 37.6145 9.714 37.2905 9.438C36.9665 9.162 36.5165 9.024 35.9405 9.024ZM36.1205 14.172H33.7805V17.358H36.1205C36.7685 17.358 37.2665 17.22 37.6145 16.944C37.9745 16.668 38.1545 16.284 38.1545 15.792C38.1545 15.276 37.9745 14.88 37.6145 14.604C37.2545 14.316 36.7565 14.172 36.1205 14.172ZM48.6975 14.874V10.248H51.2355V19.5H48.9855L48.7515 18.384C48.0795 19.2 47.1735 19.608 46.0335 19.608C44.9535 19.608 44.0715 19.284 43.3875 18.636C42.7035 17.976 42.3615 16.89 42.3615 15.378V10.248H44.8995V15.036C44.8995 15.876 45.0435 16.5 45.3315 16.908C45.6195 17.304 46.0755 17.502 46.6995 17.502C47.3355 17.502 47.8275 17.28 48.1755 16.836C48.5235 16.38 48.6975 15.726 48.6975 14.874ZM55.502 8.862C55.226 9.126 54.878 9.258 54.458 9.258C54.038 9.258 53.684 9.126 53.396 8.862C53.12 8.586 52.982 8.244 52.982 7.836C52.982 7.428 53.12 7.086 53.396 6.81C53.684 6.534 54.038 6.396 54.458 6.396C54.878 6.396 55.226 6.534 55.502 6.81C55.79 7.086 55.934 7.428 55.934 7.836C55.934 8.244 55.79 8.586 55.502 8.862ZM53.18 19.5V10.248H55.736V19.5H53.18ZM57.6667 19.5V6.9H60.2047V19.5H57.6667ZM68.8673 11.4V6.9H71.4053V19.5H69.1913L68.9393 18.222C68.2313 19.146 67.2833 19.608 66.0953 19.608C64.8353 19.608 63.8033 19.176 62.9993 18.312C62.1953 17.448 61.7933 16.296 61.7933 14.856C61.7933 13.44 62.1953 12.3 62.9993 11.436C63.8033 10.572 64.8293 10.14 66.0773 10.14C67.2773 10.14 68.2073 10.56 68.8673 11.4ZM64.9973 16.8C65.4173 17.292 65.9693 17.538 66.6533 17.538C67.3373 17.538 67.8833 17.298 68.2913 16.818C68.6993 16.326 68.9033 15.684 68.9033 14.892C68.9033 14.088 68.6993 13.44 68.2913 12.948C67.8833 12.456 67.3373 12.21 66.6533 12.21C65.9693 12.21 65.4173 12.456 64.9973 12.948C64.5893 13.44 64.3853 14.082 64.3853 14.874C64.3853 15.666 64.5893 16.308 64.9973 16.8ZM73.5528 19.5V6.9H78.3408C79.7928 6.9 80.9208 7.194 81.7248 7.782C82.5408 8.358 82.9488 9.174 82.9488 10.23C82.9488 11.754 82.1568 12.684 80.5728 13.02C81.4488 13.128 82.1388 13.422 82.6428 13.902C83.1468 14.382 83.3988 15.054 83.3988 15.918C83.3988 17.034 82.9788 17.91 82.1388 18.546C81.2988 19.182 80.1108 19.5 78.5748 19.5H73.5528ZM78.4128 9.024H76.2528V12.084H78.4128C78.9888 12.084 79.4388 11.946 79.7628 11.67C80.0868 11.394 80.2488 11.022 80.2488 10.554C80.2488 10.086 80.0868 9.714 79.7628 9.438C79.4388 9.162 78.9888 9.024 78.4128 9.024ZM78.5928 14.172H76.2528V17.358H78.5928C79.2408 17.358 79.7388 17.22 80.0868 16.944C80.4468 16.668 80.6268 16.284 80.6268 15.792C80.6268 15.276 80.4468 14.88 80.0868 14.604C79.7268 14.316 79.2288 14.172 78.5928 14.172ZM91.1698 14.874V10.248H93.7078V19.5H91.4578L91.2238 18.384C90.5518 19.2 89.6458 19.608 88.5058 19.608C87.4258 19.608 86.5438 19.284 85.8598 18.636C85.1758 17.976 84.8338 16.89 84.8338 15.378V10.248H87.3718V15.036C87.3718 15.876 87.5158 16.5 87.8038 16.908C88.0918 17.304 88.5478 17.502 89.1718 17.502C89.8078 17.502 90.2998 17.28 90.6478 16.836C90.9958 16.38 91.1698 15.726 91.1698 14.874ZM102.366 11.4V6.9H104.904V19.5H102.69L102.438 18.222C101.73 19.146 100.782 19.608 99.5943 19.608C98.3343 19.608 97.3023 19.176 96.4983 18.312C95.6943 17.448 95.2923 16.296 95.2923 14.856C95.2923 13.44 95.6943 12.3 96.4983 11.436C97.3023 10.572 98.3283 10.14 99.5763 10.14C100.776 10.14 101.706 10.56 102.366 11.4ZM98.4963 16.8C98.9163 17.292 99.4683 17.538 100.152 17.538C100.836 17.538 101.382 17.298 101.79 16.818C102.198 16.326 102.402 15.684 102.402 14.892C102.402 14.088 102.198 13.44 101.79 12.948C101.382 12.456 100.836 12.21 100.152 12.21C99.4683 12.21 98.9163 12.456 98.4963 12.948C98.0883 13.44 97.8843 14.082 97.8843 14.874C97.8843 15.666 98.0883 16.308 98.4963 16.8ZM113.568 11.4V6.9H116.106V19.5H113.892L113.64 18.222C112.932 19.146 111.984 19.608 110.796 19.608C109.536 19.608 108.504 19.176 107.7 18.312C106.896 17.448 106.494 16.296 106.494 14.856C106.494 13.44 106.896 12.3 107.7 11.436C108.504 10.572 109.53 10.14 110.778 10.14C111.978 10.14 112.908 10.56 113.568 11.4ZM109.698 16.8C110.118 17.292 110.67 17.538 111.354 17.538C112.038 17.538 112.584 17.298 112.992 16.818C113.4 16.326 113.604 15.684 113.604 14.892C113.604 14.088 113.4 13.44 112.992 12.948C112.584 12.456 112.038 12.21 111.354 12.21C110.67 12.21 110.118 12.456 109.698 12.948C109.29 13.44 109.086 14.082 109.086 14.874C109.086 15.666 109.29 16.308 109.698 16.8ZM120.719 19.554L117.155 10.248H119.855L122.105 16.836L124.301 10.248H127.019L122.915 20.814C122.603 21.654 122.279 22.242 121.943 22.578C121.607 22.926 121.103 23.1 120.431 23.1H117.965V20.958H119.369C119.693 20.958 119.927 20.904 120.071 20.796C120.215 20.688 120.353 20.478 120.485 20.166L120.719 19.554Z" fill="black"/>
</svg>
