<svg width="137" height="30" viewBox="0 0 137 30" fill="none" xmlns="http://www.w3.org/2000/svg">
<path fill-rule="evenodd" clip-rule="evenodd" d="M8.80966 0.246826V6.82411L11.542 5.63067L22 11.9931V23.8566L11 29.7532L0 23.8566V5.43097L8.80966 0.246826ZM2.65416 6.76618V22.3159L11 26.7897L19.3458 22.3159V13.4387L11.3374 8.56648L6.15549 10.8298V5.30834L2.65416 6.76618Z" fill="#FF694E"/>
<path fill-rule="evenodd" clip-rule="evenodd" d="M8.80966 6.82411V0.246826L6.15549 1.8087V10.8298L11.3374 8.56648L19.9727 13.82L21.3731 11.6117L11.542 5.63067L8.80966 6.82411Z" fill="#FF694E"/>
<path d="M40.7231 17.6415C41.3724 17.9854 41.8805 18.4654 42.2475 19.0816C42.6145 19.6834 42.798 20.3712 42.798 21.145C42.798 22.3773 42.3675 23.4019 41.5065 24.2187C40.6454 25.0354 39.5939 25.4438 38.3518 25.4438H32V10.398H37.886C39.0999 10.398 40.1232 10.7992 40.956 11.6017C41.8029 12.4041 42.2263 13.3928 42.2263 14.5678C42.2263 15.8575 41.7252 16.882 40.7231 17.6415ZM37.886 12.7194H34.4348V16.6743H37.886C38.4223 16.6743 38.874 16.488 39.241 16.1154C39.608 15.7285 39.7915 15.2556 39.7915 14.6968C39.7915 14.138 39.608 13.6723 39.241 13.2997C38.874 12.9128 38.4223 12.7194 37.886 12.7194ZM34.4348 23.1225H38.3518C38.9164 23.1225 39.3892 22.9219 39.7703 22.5206C40.1655 22.1051 40.3631 21.6036 40.3631 21.0161C40.3631 20.4285 40.1655 19.9342 39.7703 19.533C39.3892 19.1174 38.9164 18.9096 38.3518 18.9096H34.4348V23.1225Z" fill="#272F3A"/>
<path d="M51.5871 20.4572V14.6968H53.8737V25.4438H51.5871V24.0682C50.8813 25.1716 49.7874 25.7233 48.3053 25.7233C47.0773 25.7233 46.0893 25.3292 45.3412 24.5411C44.6072 23.7386 44.2402 22.6568 44.2402 21.2955V14.6968H46.5268V21.059C46.5268 21.8615 46.7386 22.4776 47.162 22.9075C47.5855 23.3374 48.1642 23.5524 48.8982 23.5524C49.7309 23.5524 50.3873 23.2944 50.8672 22.7786C51.3471 22.2484 51.5871 21.4746 51.5871 20.4572Z" fill="#272F3A"/>
<path d="M58.1778 12.6549C57.8955 12.9415 57.5568 13.0848 57.1616 13.0848C56.7663 13.0848 56.4205 12.9415 56.1241 12.6549C55.8418 12.354 55.7007 12.0029 55.7007 11.6017C55.7007 11.2004 55.8418 10.8565 56.1241 10.5699C56.4064 10.269 56.7522 10.1186 57.1616 10.1186C57.5709 10.1186 57.9167 10.269 58.199 10.5699C58.4813 10.8565 58.6225 11.2004 58.6225 11.6017C58.6225 12.0029 58.4743 12.354 58.1778 12.6549ZM58.3049 25.4438H56.0182V14.6968H58.3049V25.4438Z" fill="#272F3A"/>
<path d="M62.7172 25.4438H60.4306V9.75317H62.7172V25.4438Z" fill="#272F3A"/>
<path d="M73.2272 16.2229V10.398H75.5138V25.4438H73.2272V23.8963C72.3662 25.1143 71.1311 25.7233 69.522 25.7233C68.0682 25.7233 66.826 25.1787 65.7956 24.0897C64.7653 23.0007 64.25 21.6609 64.25 20.0703C64.25 18.4798 64.7653 17.14 65.7956 16.0509C66.826 14.9619 68.0682 14.4174 69.522 14.4174C71.1311 14.4174 72.3662 15.0192 73.2272 16.2229ZM67.4894 22.5421C68.1246 23.187 68.9221 23.5094 69.8819 23.5094C70.8418 23.5094 71.6393 23.187 72.2744 22.5421C72.9096 21.883 73.2272 21.059 73.2272 20.0703C73.2272 19.0816 72.9096 18.2648 72.2744 17.62C71.6393 16.9608 70.8418 16.6313 69.8819 16.6313C68.9221 16.6313 68.1246 16.9608 67.4894 17.62C66.8543 18.2648 66.5367 19.0816 66.5367 20.0703C66.5367 21.0447 66.8543 21.8687 67.4894 22.5421Z" fill="#272F3A"/>
<path d="M86.5211 17.6415C87.1704 17.9854 87.6785 18.4654 88.0455 19.0816C88.4125 19.6834 88.596 20.3712 88.596 21.145C88.596 22.3773 88.1655 23.4019 87.3044 24.2187C86.4434 25.0354 85.3919 25.4438 84.1497 25.4438H77.798V10.398H83.6839C84.8978 10.398 85.9212 10.7992 86.754 11.6017C87.6009 12.4041 88.0243 13.3928 88.0243 14.5678C88.0243 15.8575 87.5232 16.882 86.5211 17.6415ZM83.6839 12.7194H80.2328V16.6743H83.6839C84.2203 16.6743 84.672 16.488 85.039 16.1154C85.406 15.7285 85.5895 15.2556 85.5895 14.6968C85.5895 14.138 85.406 13.6723 85.039 13.2997C84.672 12.9128 84.2203 12.7194 83.6839 12.7194ZM80.2328 23.1225H84.1497C84.7143 23.1225 85.1872 22.9219 85.5683 22.5206C85.9635 22.1051 86.1611 21.6036 86.1611 21.0161C86.1611 20.4285 85.9635 19.9342 85.5683 19.533C85.1872 19.1174 84.7143 18.9096 84.1497 18.9096H80.2328V23.1225Z" fill="#272F3A"/>
<path d="M97.3851 20.4572V14.6968H99.6717V25.4438H97.3851V24.0682C96.6793 25.1716 95.5854 25.7233 94.1033 25.7233C92.8753 25.7233 91.8872 25.3292 91.1392 24.5411C90.4052 23.7386 90.0382 22.6568 90.0382 21.2955V14.6968H92.3248V21.059C92.3248 21.8615 92.5365 22.4776 92.96 22.9075C93.3834 23.3374 93.9622 23.5524 94.6961 23.5524C95.5289 23.5524 96.1853 23.2944 96.6652 22.7786C97.1451 22.2484 97.3851 21.4746 97.3851 20.4572Z" fill="#272F3A"/>
<path d="M110.201 16.2229V10.398H112.487V25.4438H110.201V23.8963C109.34 25.1143 108.104 25.7233 106.495 25.7233C105.042 25.7233 103.799 25.1787 102.769 24.0897C101.739 23.0007 101.223 21.6609 101.223 20.0703C101.223 18.4798 101.739 17.14 102.769 16.0509C103.799 14.9619 105.042 14.4174 106.495 14.4174C108.104 14.4174 109.34 15.0192 110.201 16.2229ZM104.463 22.5421C105.098 23.187 105.895 23.5094 106.855 23.5094C107.815 23.5094 108.613 23.187 109.248 22.5421C109.883 21.883 110.201 21.059 110.201 20.0703C110.201 19.0816 109.883 18.2648 109.248 17.62C108.613 16.9608 107.815 16.6313 106.855 16.6313C105.895 16.6313 105.098 16.9608 104.463 17.62C103.828 18.2648 103.51 19.0816 103.51 20.0703C103.51 21.0447 103.828 21.8687 104.463 22.5421Z" fill="#272F3A"/>
<path d="M123.007 16.2229V10.398H125.294V25.4438H123.007V23.8963C122.146 25.1143 120.911 25.7233 119.302 25.7233C117.848 25.7233 116.606 25.1787 115.576 24.0897C114.545 23.0007 114.03 21.6609 114.03 20.0703C114.03 18.4798 114.545 17.14 115.576 16.0509C116.606 14.9619 117.848 14.4174 119.302 14.4174C120.911 14.4174 122.146 15.0192 123.007 16.2229ZM117.27 22.5421C117.905 23.187 118.702 23.5094 119.662 23.5094C120.622 23.5094 121.42 23.187 122.055 22.5421C122.69 21.883 123.007 21.059 123.007 20.0703C123.007 19.0816 122.69 18.2648 122.055 17.62C121.42 16.9608 120.622 16.6313 119.662 16.6313C118.702 16.6313 117.905 16.9608 117.27 17.62C116.635 18.2648 116.317 19.0816 116.317 20.0703C116.317 21.0447 116.635 21.8687 117.27 22.5421Z" fill="#272F3A"/>
<path d="M131.855 22.4991L134.565 14.6968H137L132.935 25.7877C131.919 28.5676 130.197 29.8859 127.769 29.7426V27.5717C128.475 27.6147 129.046 27.4643 129.484 27.1204C129.921 26.7765 130.288 26.2248 130.585 25.4653L130.691 25.2504L126.202 14.6968H128.7L131.855 22.4991Z" fill="#272F3A"/>
</svg>
