<svg width="137" height="30" viewBox="0 0 137 30" fill="none" xmlns="http://www.w3.org/2000/svg">
<path fill-rule="evenodd" clip-rule="evenodd" d="M8.80966 0V6.57729L11.542 5.38384L22 11.7462V23.6098L11 29.5064L0 23.6098V5.18415L8.80966 0ZM2.65416 6.51935V22.0691L11 26.5429L19.3458 22.0691V13.1918L11.3374 8.31965L6.15549 10.583V5.06151L2.65416 6.51935Z" fill="#FF694E"/>
<path fill-rule="evenodd" clip-rule="evenodd" d="M8.80966 6.57729V0L6.15549 1.56187V10.583L11.3374 8.31965L19.9727 13.5732L21.3731 11.3649L11.542 5.38384L8.80966 6.57729Z" fill="#FF694E"/>
<path d="M40.7231 17.3947C41.3724 17.7386 41.8805 18.2186 42.2475 18.8348C42.6145 19.4366 42.798 20.1244 42.798 20.8982C42.798 22.1305 42.3675 23.1551 41.5065 23.9718C40.6454 24.7886 39.5939 25.197 38.3518 25.197H32V10.1512H37.886C39.0999 10.1512 40.1232 10.5524 40.956 11.3548C41.8029 12.1573 42.2263 13.146 42.2263 14.321C42.2263 15.6107 41.7252 16.6352 40.7231 17.3947ZM37.886 12.4725H34.4348V16.4274H37.886C38.4223 16.4274 38.874 16.2411 39.241 15.8686C39.608 15.4817 39.7915 15.0088 39.7915 14.45C39.7915 13.8911 39.608 13.4254 39.241 13.0529C38.874 12.666 38.4223 12.4725 37.886 12.4725ZM34.4348 22.8756H38.3518C38.9164 22.8756 39.3892 22.675 39.7703 22.2738C40.1655 21.8583 40.3631 21.3567 40.3631 20.7692C40.3631 20.1817 40.1655 19.6874 39.7703 19.2861C39.3892 18.8706 38.9164 18.6628 38.3518 18.6628H34.4348V22.8756Z" fill="white"/>
<path d="M51.5871 20.2104V14.45H53.8737V25.197H51.5871V23.8214C50.8813 24.9247 49.7874 25.4764 48.3053 25.4764C47.0773 25.4764 46.0893 25.0824 45.3412 24.2943C44.6072 23.4918 44.2402 22.4099 44.2402 21.0487V14.45H46.5268V20.8122C46.5268 21.6147 46.7386 22.2308 47.162 22.6607C47.5855 23.0906 48.1642 23.3055 48.8982 23.3055C49.7309 23.3055 50.3873 23.0476 50.8672 22.5317C51.3471 22.0016 51.5871 21.2278 51.5871 20.2104Z" fill="white"/>
<path d="M58.1778 12.408C57.8955 12.6946 57.5568 12.8379 57.1616 12.8379C56.7663 12.8379 56.4205 12.6946 56.1241 12.408C55.8418 12.1071 55.7007 11.7561 55.7007 11.3548C55.7007 10.9536 55.8418 10.6097 56.1241 10.3231C56.4064 10.0222 56.7522 9.87175 57.1616 9.87175C57.5709 9.87175 57.9167 10.0222 58.199 10.3231C58.4813 10.6097 58.6225 10.9536 58.6225 11.3548C58.6225 11.7561 58.4743 12.1071 58.1778 12.408ZM58.3049 25.197H56.0182V14.45H58.3049V25.197Z" fill="white"/>
<path d="M62.7172 25.197H60.4306V9.50635H62.7172V25.197Z" fill="white"/>
<path d="M73.2272 15.9761V10.1512H75.5138V25.197H73.2272V23.6494C72.3662 24.8674 71.1311 25.4764 69.522 25.4764C68.0682 25.4764 66.826 24.9319 65.7956 23.8429C64.7653 22.7538 64.25 21.414 64.25 19.8235C64.25 18.2329 64.7653 16.8931 65.7956 15.8041C66.826 14.7151 68.0682 14.1706 69.522 14.1706C71.1311 14.1706 72.3662 14.7724 73.2272 15.9761ZM67.4894 22.2953C68.1246 22.9401 68.9221 23.2625 69.8819 23.2625C70.8418 23.2625 71.6393 22.9401 72.2744 22.2953C72.9096 21.6362 73.2272 20.8122 73.2272 19.8235C73.2272 18.8348 72.9096 18.018 72.2744 17.3732C71.6393 16.714 70.8418 16.3844 69.8819 16.3844C68.9221 16.3844 68.1246 16.714 67.4894 17.3732C66.8543 18.018 66.5367 18.8348 66.5367 19.8235C66.5367 20.7979 66.8543 21.6218 67.4894 22.2953Z" fill="white"/>
<path d="M86.5211 17.3947C87.1704 17.7386 87.6785 18.2186 88.0455 18.8348C88.4125 19.4366 88.596 20.1244 88.596 20.8982C88.596 22.1305 88.1655 23.1551 87.3044 23.9718C86.4434 24.7886 85.3919 25.197 84.1497 25.197H77.798V10.1512H83.6839C84.8978 10.1512 85.9212 10.5524 86.754 11.3548C87.6009 12.1573 88.0243 13.146 88.0243 14.321C88.0243 15.6107 87.5232 16.6352 86.5211 17.3947ZM83.6839 12.4725H80.2328V16.4274H83.6839C84.2203 16.4274 84.672 16.2411 85.039 15.8686C85.406 15.4817 85.5895 15.0088 85.5895 14.45C85.5895 13.8911 85.406 13.4254 85.039 13.0529C84.672 12.666 84.2203 12.4725 83.6839 12.4725ZM80.2328 22.8756H84.1497C84.7143 22.8756 85.1872 22.675 85.5683 22.2738C85.9635 21.8583 86.1611 21.3567 86.1611 20.7692C86.1611 20.1817 85.9635 19.6874 85.5683 19.2861C85.1872 18.8706 84.7143 18.6628 84.1497 18.6628H80.2328V22.8756Z" fill="white"/>
<path d="M97.3851 20.2104V14.45H99.6717V25.197H97.3851V23.8214C96.6793 24.9247 95.5854 25.4764 94.1033 25.4764C92.8753 25.4764 91.8872 25.0824 91.1392 24.2943C90.4052 23.4918 90.0382 22.4099 90.0382 21.0487V14.45H92.3248V20.8122C92.3248 21.6147 92.5365 22.2308 92.96 22.6607C93.3834 23.0906 93.9622 23.3055 94.6961 23.3055C95.5289 23.3055 96.1853 23.0476 96.6652 22.5317C97.1451 22.0016 97.3851 21.2278 97.3851 20.2104Z" fill="white"/>
<path d="M110.201 15.9761V10.1512H112.487V25.197H110.201V23.6494C109.34 24.8674 108.104 25.4764 106.495 25.4764C105.042 25.4764 103.799 24.9319 102.769 23.8429C101.739 22.7538 101.223 21.414 101.223 19.8235C101.223 18.2329 101.739 16.8931 102.769 15.8041C103.799 14.7151 105.042 14.1706 106.495 14.1706C108.104 14.1706 109.34 14.7724 110.201 15.9761ZM104.463 22.2953C105.098 22.9401 105.895 23.2625 106.855 23.2625C107.815 23.2625 108.613 22.9401 109.248 22.2953C109.883 21.6362 110.201 20.8122 110.201 19.8235C110.201 18.8348 109.883 18.018 109.248 17.3732C108.613 16.714 107.815 16.3844 106.855 16.3844C105.895 16.3844 105.098 16.714 104.463 17.3732C103.828 18.018 103.51 18.8348 103.51 19.8235C103.51 20.7979 103.828 21.6218 104.463 22.2953Z" fill="white"/>
<path d="M123.007 15.9761V10.1512H125.294V25.197H123.007V23.6494C122.146 24.8674 120.911 25.4764 119.302 25.4764C117.848 25.4764 116.606 24.9319 115.576 23.8429C114.545 22.7538 114.03 21.414 114.03 19.8235C114.03 18.2329 114.545 16.8931 115.576 15.8041C116.606 14.7151 117.848 14.1706 119.302 14.1706C120.911 14.1706 122.146 14.7724 123.007 15.9761ZM117.27 22.2953C117.905 22.9401 118.702 23.2625 119.662 23.2625C120.622 23.2625 121.42 22.9401 122.055 22.2953C122.69 21.6362 123.007 20.8122 123.007 19.8235C123.007 18.8348 122.69 18.018 122.055 17.3732C121.42 16.714 120.622 16.3844 119.662 16.3844C118.702 16.3844 117.905 16.714 117.27 17.3732C116.635 18.018 116.317 18.8348 116.317 19.8235C116.317 20.7979 116.635 21.6218 117.27 22.2953Z" fill="white"/>
<path d="M131.855 22.2523L134.565 14.45H137L132.935 25.5409C131.919 28.3208 130.197 29.6391 127.769 29.4958V27.3249C128.475 27.3679 129.046 27.2174 129.484 26.8735C129.921 26.5296 130.288 25.978 130.585 25.2185L130.691 25.0036L126.202 14.45H128.7L131.855 22.2523Z" fill="white"/>
</svg>
