<svg width="20" height="20" viewBox="0 0 20 20" fill="none" xmlns="http://www.w3.org/2000/svg">
<path opacity="0.4" d="M20 10.0124C20.0009 10.4156 19.8865 10.8108 19.6701 11.1519C19.4538 11.4931 19.1444 11.7662 18.7779 11.9396L3.07232 19.3286C2.78487 19.4843 2.46643 19.5751 2.13963 19.5948C1.78201 19.594 1.43026 19.5045 1.1164 19.3342C0.802535 19.164 0.536533 18.9185 0.342608 18.6201C0.148684 18.3217 0.0329981 17.9798 0.00608201 17.6256C-0.0208341 17.2715 0.0418751 16.9163 0.1885 16.5923L2.63278 11.0771H8.57194C8.85626 11.0771 9.12894 10.965 9.32999 10.7653C9.53104 10.5656 9.64399 10.2948 9.64399 10.0124C9.64399 9.73007 9.53104 9.45926 9.32999 9.25959C9.12894 9.05992 8.85626 8.94774 8.57194 8.94774H2.63278L0.1885 3.48581C0.0113887 3.0889 -0.0393344 2.64771 0.0431292 2.22136C0.125593 1.79501 0.337303 1.40388 0.649885 1.10039C0.962468 0.796904 1.36099 0.595554 1.79203 0.523329C2.22308 0.451103 2.66606 0.511453 3.0616 0.696291L18.7671 8.08533C19.1357 8.25717 19.4473 8.52965 19.6656 8.87092C19.8839 9.21218 19.9999 9.60813 20 10.0124Z" fill="black"/>
</svg>
