<svg width="80" height="100" viewBox="0 0 80 100" fill="none" xmlns="http://www.w3.org/2000/svg">
<path d="M9.65416 16.2579C11.0952 16.2579 12.2633 15.0897 12.2633 13.6488C12.2633 12.2078 11.0952 11.0396 9.65416 11.0396C8.21317 11.0396 7.04501 12.2078 7.04501 13.6488C7.04501 15.0897 8.21317 16.2579 9.65416 16.2579Z" fill="#FFBC0E"/>
<path d="M9.68316 16.8435C9.0513 16.8435 8.43363 16.6561 7.90825 16.3051C7.38288 15.954 6.9734 15.4551 6.73159 14.8713C6.48979 14.2876 6.42652 13.6452 6.54979 13.0255C6.67306 12.4058 6.97733 11.8365 7.42413 11.3897C7.87092 10.9429 8.44017 10.6386 9.0599 10.5154C9.67962 10.3921 10.322 10.4554 10.9057 10.6972C11.4895 10.939 11.9885 11.3485 12.3395 11.8738C12.6905 12.3992 12.8779 13.0169 12.8779 13.6487C12.8779 14.0683 12.7953 14.4837 12.6347 14.8713C12.4742 15.2589 12.2389 15.6111 11.9422 15.9078C11.6455 16.2044 11.2933 16.4398 10.9057 16.6003C10.5181 16.7609 10.1027 16.8435 9.68316 16.8435ZM9.68316 11.6252C9.28041 11.6252 8.88671 11.7447 8.55191 11.9686C8.21711 12.1925 7.95626 12.5107 7.8024 12.8829C7.64853 13.2551 7.60857 13.6646 7.68757 14.0595C7.76657 14.4545 7.96097 14.8171 8.24616 15.1015C8.53136 15.3858 8.89453 15.5792 9.28969 15.6571C9.68485 15.7349 10.0942 15.6938 10.466 15.5389C10.8378 15.384 11.1552 15.1222 11.3781 14.7868C11.6011 14.4513 11.7194 14.0573 11.7183 13.6545C11.7191 13.3871 11.6669 13.1221 11.5649 12.8748C11.4629 12.6276 11.3131 12.4029 11.1239 12.2138C10.9348 12.0247 10.7101 11.8748 10.4629 11.7728C10.2156 11.6708 9.95064 11.6186 9.68316 11.6194V11.6252Z" fill="#093F68"/>
<path d="M69.595 15.823C71.036 15.823 72.2042 14.6549 72.2042 13.2139C72.2042 11.7729 71.036 10.6047 69.595 10.6047C68.154 10.6047 66.9859 11.7729 66.9859 13.2139C66.9859 14.6549 68.154 15.823 69.595 15.823Z" fill="#FFBC0E"/>
<path d="M69.595 16.4087C68.9629 16.4098 68.3447 16.2234 67.8185 15.8731C67.2924 15.5227 66.882 15.0242 66.6393 14.4405C66.3966 13.8569 66.3325 13.2143 66.4552 12.5942C66.5778 11.9741 66.8816 11.4043 67.3281 10.9569C67.7747 10.5096 68.3439 10.2047 68.9638 10.081C69.5837 9.95723 70.2264 10.0202 70.8105 10.2618C71.3946 10.5034 71.8939 10.9129 72.2452 11.4384C72.5965 11.9639 72.784 12.5818 72.784 13.2139C72.784 14.0602 72.4482 14.8719 71.8503 15.4709C71.2524 16.0699 70.4413 16.4071 69.595 16.4087ZM69.595 11.1904C69.192 11.1892 68.7978 11.3078 68.4622 11.5309C68.1266 11.7541 67.8649 12.0719 67.7101 12.444C67.5554 12.8161 67.5146 13.2258 67.5929 13.6211C67.6713 14.0164 67.8652 14.3796 68.1502 14.6646C68.4351 14.9495 68.7983 15.1435 69.1936 15.2218C69.5889 15.3002 69.9986 15.2594 70.3707 15.1046C70.7428 14.9499 71.0606 14.6881 71.2838 14.3525C71.507 14.017 71.6255 13.6227 71.6244 13.2197C71.6244 12.681 71.4107 12.1642 71.0303 11.7827C70.6499 11.4012 70.1338 11.1861 69.595 11.1846V11.1904Z" fill="#093F68"/>
<path d="M10.0717 14.2344C9.94413 14.2356 9.81975 14.1948 9.71778 14.1182C9.61581 14.0416 9.54193 13.9335 9.50759 13.8107C9.47325 13.6879 9.48036 13.5571 9.52783 13.4388C9.5753 13.3204 9.66047 13.221 9.77016 13.1559L20.2068 6.77799C20.3343 4.11086 22.0274 0 27.7443 0H39.8334C39.9871 0 40.1346 0.0610866 40.2433 0.169822C40.3521 0.278558 40.4132 0.426036 40.4132 0.579811C40.4132 0.733586 40.3521 0.881064 40.2433 0.9898C40.1346 1.09854 39.9871 1.15962 39.8334 1.15962H27.7559C21.5577 1.15962 21.378 6.49968 21.378 7.10848C21.3786 7.20855 21.3532 7.30706 21.3045 7.39444C21.2557 7.48182 21.1851 7.55509 21.0997 7.60712L10.3732 14.1358C10.2838 14.196 10.1794 14.2302 10.0717 14.2344Z" fill="#093F68"/>
<path d="M69.595 14.2344C69.4884 14.2336 69.3841 14.2035 69.2935 14.1474L58.567 7.61872C58.4815 7.56668 58.411 7.49342 58.3622 7.40604C58.3134 7.31866 58.2881 7.22014 58.2887 7.12008C58.2887 6.54027 58.109 1.17122 51.9108 1.17122H39.8333C39.6795 1.17122 39.5321 1.11013 39.4233 1.0014C39.3146 0.892663 39.2535 0.745185 39.2535 0.59141C39.2535 0.437634 39.3146 0.290157 39.4233 0.181421C39.5321 0.0726855 39.6795 0.0115967 39.8333 0.0115967H51.9108C57.6219 0.0115967 59.315 4.12246 59.4483 6.78959L69.8849 13.1675C69.9946 13.2326 70.0798 13.332 70.1272 13.4504C70.1747 13.5687 70.1818 13.6995 70.1475 13.8223C70.1132 13.9451 70.0393 14.0532 69.9373 14.1298C69.8353 14.2064 69.7109 14.2472 69.5834 14.246L69.595 14.2344Z" fill="#093F68"/>
<path d="M66.0823 99.3363C65.41 99.4867 64.7055 99.3639 64.1238 98.9949C63.542 98.6258 63.1307 98.0408 62.9803 97.3685L59.9057 83.6246L64.9981 82.4854L68.0728 96.2293C68.2232 96.9016 68.1003 97.6061 67.7313 98.1878C67.3622 98.7696 66.7772 99.1809 66.1049 99.3313L66.0823 99.3363Z" fill="#093F68"/>
<path d="M65.5073 99.971C64.787 99.9698 64.0885 99.7234 63.5268 99.2724C62.9651 98.8213 62.5737 98.1925 62.417 97.4894L59.344 83.7479C59.3267 83.6731 59.3245 83.5956 59.3375 83.52C59.3504 83.4444 59.3782 83.372 59.4193 83.3072C59.5009 83.1782 59.6301 83.0865 59.7788 83.0521L64.8522 81.8925C65.0013 81.8595 65.1573 81.8867 65.2865 81.9681C65.4157 82.0495 65.5076 82.1786 65.5421 82.3274L68.6151 96.0747C68.7984 96.8966 68.6479 97.7576 68.1967 98.4686C67.7456 99.1796 67.0306 99.6825 66.2089 99.8666C65.9796 99.9273 65.7443 99.9623 65.5073 99.971ZM60.6021 84.061L63.5476 97.2343C63.664 97.7562 63.9828 98.2106 64.4339 98.4976C64.8851 98.7846 65.4318 98.8808 65.9538 98.765C66.2128 98.7074 66.458 98.5993 66.6751 98.4468C66.8923 98.2944 67.0773 98.1006 67.2195 97.8765C67.3617 97.6525 67.4583 97.4026 67.5037 97.1411C67.5492 96.8797 67.5427 96.6119 67.4845 96.353L64.5391 83.1797L60.6021 84.061Z" fill="#093F68"/>
<path d="M14.6876 82.4851L19.78 83.6243L16.7003 97.3908C16.5499 98.0631 16.1386 98.6481 15.5569 99.0171C14.9752 99.3862 14.2707 99.509 13.5984 99.3586C12.9261 99.2082 12.3411 98.7969 11.972 98.2152C11.603 97.6334 11.4801 96.9289 11.6305 96.2566L14.7103 82.4901L14.6876 82.4851Z" fill="#093F68"/>
<path d="M14.1593 99.971C13.6826 99.973 13.2115 99.8675 12.7811 99.6624C12.3508 99.4573 11.9722 99.1578 11.6736 98.7861C11.3749 98.4145 11.1639 97.9804 11.0562 97.5159C10.9485 97.0515 10.9469 96.5688 11.0515 96.1037L14.1245 82.3563C14.1589 82.2076 14.2506 82.0784 14.3796 81.9969C14.509 81.9154 14.6653 81.8883 14.8145 81.9215L19.8878 83.0811C20.0366 83.1155 20.1657 83.2072 20.2473 83.3362C20.2884 83.401 20.3162 83.4734 20.3292 83.549C20.3421 83.6246 20.3399 83.7021 20.3227 83.7769L17.2497 97.5184C17.093 98.2215 16.7016 98.8503 16.1399 99.3014C15.5782 99.7524 14.8797 99.9988 14.1593 100V99.971ZM15.1276 83.1565L12.1821 96.3762C12.1172 96.6372 12.1051 96.9086 12.1465 97.1744C12.188 97.4401 12.2822 97.6949 12.4235 97.9238C12.5649 98.1526 12.7506 98.3509 12.9697 98.507C13.1888 98.663 13.4369 98.7736 13.6994 98.8324C13.9619 98.8912 14.2335 98.8969 14.4982 98.8491C14.7629 98.8014 15.0154 98.7012 15.2409 98.5545C15.4663 98.4077 15.6601 98.2174 15.811 97.9947C15.9618 97.7719 16.0665 97.5213 16.1191 97.2575L19.0645 84.0842L15.1276 83.1565Z" fill="#093F68"/>
<path d="M13.4105 18.9774C13.989 18.6033 14.6924 18.4743 15.366 18.6188C16.0396 18.7634 16.6281 19.1695 17.0022 19.748L24.6595 31.5888L20.2776 34.4225L12.6204 22.5817C12.2463 22.0032 12.1173 21.2998 12.2618 20.6262C12.4063 19.9526 12.8125 19.3641 13.391 18.99L13.4105 18.9774Z" fill="#093F68"/>
<path d="M20.2879 34.9684H20.1662C20.0915 34.9521 20.0207 34.9211 19.958 34.8773C19.8953 34.8335 19.8419 34.7778 19.8009 34.7133L12.1532 22.8909C11.6984 22.182 11.5425 21.322 11.7196 20.4986C11.8967 19.6752 12.3923 18.9553 13.0983 18.496C13.8072 18.0412 14.6672 17.8853 15.4906 18.0624C16.314 18.2395 17.0339 18.7351 17.4932 19.4411L25.1351 31.2634C25.1773 31.3273 25.2064 31.3989 25.2208 31.474C25.2352 31.5492 25.2346 31.6265 25.2189 31.7014C25.2033 31.7763 25.173 31.8474 25.1298 31.9106C25.0865 31.9737 25.0312 32.0277 24.967 32.0693L20.6068 34.8872C20.5106 34.9445 20.3998 34.9727 20.2879 34.9684ZM14.8203 19.1396C14.4341 19.1406 14.0561 19.2512 13.7303 19.4585C13.2843 19.752 12.9729 20.2104 12.8642 20.7331C12.7555 21.2559 12.8584 21.8004 13.1504 22.2473L20.4851 33.5884L23.8711 31.3968L16.5191 20.0615C16.2264 19.6113 15.7681 19.2947 15.2436 19.1801C15.1042 19.1523 14.9624 19.1387 14.8203 19.1396Z" fill="#093F68"/>
<path d="M7.67123 30.9329C7.47057 31.0637 7.2443 31.15 7.00756 31.1862C6.77083 31.2224 6.52909 31.2077 6.29852 31.1429C6.06796 31.0781 5.85389 30.9648 5.67065 30.8106C5.48741 30.6564 5.33923 30.4648 5.23602 30.2487C3.91104 27.3631 3.66993 24.0968 4.55686 21.0479C5.44379 17.999 7.39939 15.3717 10.0655 13.6471C12.7316 11.9225 15.9298 11.2161 19.0742 11.6572C22.2187 12.0984 25.099 13.6575 27.1877 16.0492C27.3432 16.2317 27.4578 16.4455 27.5239 16.676C27.59 16.9066 27.606 17.1486 27.5709 17.3858C27.5357 17.6231 27.4502 17.85 27.3201 18.0515C27.19 18.253 27.0183 18.4243 26.8166 18.5539L7.67123 30.9329Z" fill="#FFBC0E"/>
<path d="M6.74932 31.7852C6.53545 31.7828 6.32288 31.7516 6.11733 31.6925C5.81016 31.6048 5.52565 31.4516 5.28341 31.2434C5.04117 31.0352 4.84696 30.777 4.71418 30.4865C3.31427 27.4694 3.05216 24.0479 3.97616 20.8528C4.90017 17.6577 6.94801 14.9043 9.7422 13.1001C12.5364 11.2959 15.8886 10.5626 19.1809 11.0353C22.4732 11.508 25.4836 13.1548 27.6573 15.6723C27.8619 15.9091 28.0142 16.1865 28.1042 16.4862C28.1941 16.786 28.2196 17.1014 28.1791 17.4117C28.1344 17.7362 28.0201 18.0473 27.8439 18.3235C27.6678 18.5997 27.434 18.8346 27.1587 19.012L8.0249 31.391C7.64755 31.6446 7.20397 31.7817 6.74932 31.7852ZM17.2207 12.1296C14.7972 12.125 12.4245 12.8239 10.3905 14.1416C7.84746 15.7936 5.98099 18.3027 5.12991 21.2134C4.27884 24.124 4.49957 27.2434 5.75205 30.0052C5.81626 30.1443 5.90951 30.268 6.02552 30.368C6.14154 30.468 6.27762 30.542 6.42463 30.585C6.5789 30.6299 6.741 30.6413 6.90003 30.6183C7.05905 30.5953 7.2113 30.5385 7.34653 30.4517L26.4803 18.0727C26.6145 17.9835 26.7288 17.8674 26.8156 17.7316C26.9025 17.5958 26.9601 17.4434 26.9847 17.2842C27.0063 17.1334 26.9953 16.9798 26.9522 16.8338C26.9092 16.6877 26.8353 16.5526 26.7354 16.4376C25.548 15.0831 24.0848 13.9979 22.4438 13.2549C20.8029 12.5119 19.022 12.1283 17.2207 12.1296Z" fill="#093F68"/>
<path d="M59.3756 34.3894L54.9937 31.5557L62.6415 19.7295C63.0156 19.151 63.6042 18.7448 64.2778 18.6003C64.9514 18.4557 65.6548 18.5847 66.2333 18.9588C66.8118 19.3329 67.2179 19.9215 67.3625 20.5951C67.507 21.2686 67.378 21.9721 67.0039 22.5505L59.3561 34.3768L59.3756 34.3894Z" fill="#093F68"/>
<path d="M59.3788 34.9684C59.2657 34.9692 59.1549 34.937 59.0599 34.8756L54.6997 32.0577C54.6355 32.0161 54.5802 31.9621 54.5369 31.899C54.4937 31.8358 54.4634 31.7647 54.4478 31.6898C54.4321 31.6149 54.4315 31.5376 54.4459 31.4624C54.4603 31.3873 54.4894 31.3157 54.5316 31.2518L62.1735 19.4295C62.631 18.7213 63.351 18.2239 64.1752 18.0467C64.9994 17.8695 65.8603 18.0269 66.5684 18.4844C67.2766 18.9419 67.774 19.6619 67.9512 20.4861C68.1285 21.3103 67.971 22.1712 67.5135 22.8793L59.8658 34.7017C59.8248 34.7662 59.7714 34.822 59.7087 34.8657C59.646 34.9095 59.5752 34.9405 59.5005 34.9568L59.3788 34.9684ZM55.8188 31.3968L59.2048 33.5885L66.5394 22.2473C66.6866 22.0247 66.788 21.775 66.838 21.5128C66.8879 21.2506 66.8853 20.9811 66.8304 20.72C66.7755 20.4588 66.6693 20.2111 66.518 19.9912C66.3667 19.7714 66.1732 19.5837 65.9489 19.4392C65.7245 19.2946 65.4737 19.196 65.211 19.149C64.9483 19.102 64.6788 19.1076 64.4183 19.1655C64.1578 19.2234 63.9113 19.3324 63.6932 19.4862C63.475 19.64 63.2896 19.8355 63.1476 20.0615L55.8188 31.3968Z" fill="#093F68"/>
<path d="M71.9954 30.9329C72.1961 31.0637 72.4223 31.15 72.6591 31.1862C72.8958 31.2224 73.1376 31.2077 73.3681 31.1429C73.5987 31.0781 73.8127 30.9648 73.996 30.8106C74.1792 30.6564 74.3274 30.4648 74.4306 30.2487C75.7556 27.3631 75.9967 24.0968 75.1098 21.0479C74.2229 17.999 72.2673 15.3717 69.6012 13.6471C66.935 11.9225 63.7369 11.2161 60.5924 11.6572C57.4479 12.0984 54.5676 13.6575 52.479 16.0492C52.3235 16.2317 52.2088 16.4455 52.1427 16.676C52.0767 16.9066 52.0606 17.1486 52.0958 17.3858C52.1309 17.6231 52.2164 17.85 52.3465 18.0515C52.4766 18.253 52.6483 18.4243 52.8501 18.5539L71.9954 30.9329Z" fill="#FFBC0E"/>
<path d="M72.9173 31.7852C72.4775 31.7836 72.0471 31.6569 71.6765 31.42L52.5428 19.041C52.2674 18.8636 52.0336 18.6287 51.8575 18.3525C51.6814 18.0763 51.567 17.7653 51.5223 17.4407C51.4818 17.1304 51.5074 16.815 51.5973 16.5152C51.6872 16.2155 51.8395 15.9381 52.0441 15.7013C54.2252 13.2098 57.23 11.5865 60.5094 11.128C63.7887 10.6695 67.1235 11.4065 69.9043 13.2043C72.685 15.0021 74.7259 17.7405 75.6538 20.9191C76.5818 24.0976 76.3349 27.504 74.9583 30.5155C74.8255 30.806 74.6313 31.0642 74.389 31.2724C74.1468 31.4806 73.8623 31.6338 73.5551 31.7215C73.3464 31.7714 73.1318 31.7928 72.9173 31.7852ZM62.4459 12.1297C60.6421 12.1251 58.8582 12.5066 57.2141 13.2487C55.57 13.9908 54.1037 15.0761 52.9138 16.4319C52.8135 16.5477 52.7393 16.6838 52.6963 16.8308C52.6533 16.9779 52.6424 17.1325 52.6645 17.2842C52.69 17.4424 52.7479 17.5937 52.8347 17.7284C52.9216 17.8631 53.0354 17.9784 53.169 18.0669L72.3027 30.4459C72.438 30.5327 72.5902 30.5895 72.7492 30.6125C72.9083 30.6355 73.0704 30.6241 73.2246 30.5792C73.3716 30.5362 73.5077 30.4622 73.6237 30.3622C73.7398 30.2622 73.833 30.1385 73.8972 29.9994C75.1497 27.2376 75.3704 24.1182 74.5193 21.2076C73.6683 18.2969 71.8018 15.7878 69.2587 14.1358C67.2291 12.8234 64.8629 12.1267 62.4459 12.1297Z" fill="#093F68"/>
<path d="M41.2829 11.5382H38.3838V22.9605H41.2829V11.5382Z" fill="#57B3BD"/>
<path d="M41.2829 23.5403H38.3838C38.23 23.5403 38.0825 23.4792 37.9738 23.3705C37.8651 23.2618 37.804 23.1143 37.804 22.9605V11.5382C37.804 11.3845 37.8651 11.237 37.9738 11.1282C38.0825 11.0195 38.23 10.9584 38.3838 10.9584H41.2829C41.4366 10.9584 41.5841 11.0195 41.6928 11.1282C41.8016 11.237 41.8627 11.3845 41.8627 11.5382V22.9605C41.8627 23.1143 41.8016 23.2618 41.6928 23.3705C41.5841 23.4792 41.4366 23.5403 41.2829 23.5403ZM38.9636 22.3807H40.703V12.118H38.9636V22.3807Z" fill="#093F68"/>
<path d="M39.8333 98.8404C61.1792 98.8404 78.4835 81.5361 78.4835 60.1902C78.4835 38.8443 61.1792 21.54 39.8333 21.54C18.4874 21.54 1.18311 38.8443 1.18311 60.1902C1.18311 81.5361 18.4874 98.8404 39.8333 98.8404Z" fill="#57B3BD"/>
<path d="M39.8333 99.4202C32.0744 99.4202 24.4896 97.1194 18.0383 92.8087C11.587 88.4981 6.55876 82.3712 3.58953 75.2028C0.620303 68.0345 -0.156586 60.1466 1.35711 52.5368C2.87081 44.9269 6.60711 37.9368 12.0935 32.4503C17.5799 26.9639 24.5701 23.2276 32.1799 21.7139C39.7898 20.2002 47.6777 20.9771 54.846 23.9464C62.0144 26.9156 68.1412 31.9438 72.4519 38.3951C76.7625 44.8465 79.0633 52.4312 79.0633 60.1902C79.0526 70.5913 74.916 80.5634 67.5613 87.9181C60.2065 95.2728 50.2345 99.4094 39.8333 99.4202ZM39.8333 22.1198C32.3037 22.1198 24.9432 24.3526 18.6826 28.5358C12.4219 32.719 7.54234 38.6648 4.66088 45.6213C1.77943 52.5777 1.0255 60.2324 2.49446 67.6173C3.96341 75.0022 7.58926 81.7857 12.9135 87.11C18.2377 92.4342 25.0212 96.0601 32.4062 97.529C39.7911 98.998 47.4458 98.2441 54.4022 95.3626C61.3587 92.4811 67.3045 87.6016 71.4877 81.3409C75.6709 75.0803 77.9037 67.7198 77.9037 60.1902C77.893 50.0966 73.8785 40.4194 66.7413 33.2822C59.604 26.1449 49.9269 22.1305 39.8333 22.1198Z" fill="#093F68"/>
<path d="M40 96C59.8822 96 76 79.8822 76 60C76 40.1177 59.8822 24 40 24C20.1178 24 4 40.1177 4 60C4 79.8822 20.1178 96 40 96Z" fill="white"/>
<path d="M40 96C32.8799 96 25.9197 93.8886 19.9995 89.9329C14.0793 85.9772 9.46511 80.3547 6.74036 73.7766C4.0156 67.1985 3.30268 59.9601 4.69174 52.9768C6.08081 45.9934 9.50948 39.5789 14.5442 34.5442C19.5789 29.5095 25.9935 26.0808 32.9768 24.6917C39.9601 23.3027 47.1985 24.0156 53.7766 26.7404C60.3547 29.4651 65.9772 34.0793 69.9329 39.9995C73.8886 45.9197 76 52.8799 76 60C75.9891 69.5444 72.1927 78.6948 65.4438 85.4438C58.6948 92.1927 49.5444 95.9891 40 96ZM40 25.3767C33.1522 25.3767 26.4581 27.4073 20.7643 31.2118C15.0706 35.0162 10.6328 40.4236 8.01223 46.7502C5.39167 53.0768 4.70602 60.0384 6.04197 66.7547C7.37792 73.471 10.6755 79.6402 15.5176 84.4824C20.3598 89.3245 26.5291 92.6221 33.2453 93.958C39.9616 95.294 46.9232 94.6083 53.2498 91.9878C59.5764 89.3672 64.9838 84.9295 68.7882 79.2357C72.5927 73.5419 74.6233 66.8479 74.6233 60C74.6142 50.8201 70.9635 42.0189 64.4723 35.5277C57.9812 29.0365 49.1799 25.3858 40 25.3767Z" fill="#093F68"/>
<path d="M39.8333 34.1369C39.6795 34.1369 39.5321 34.0758 39.4233 33.9671C39.3146 33.8583 39.2535 33.7108 39.2535 33.5571V29.6897C39.2535 29.536 39.3146 29.3885 39.4233 29.2797C39.5321 29.171 39.6795 29.1099 39.8333 29.1099C39.9871 29.1099 40.1346 29.171 40.2433 29.2797C40.352 29.3885 40.4131 29.536 40.4131 29.6897V33.5571C40.4131 33.7108 40.352 33.8583 40.2433 33.9671C40.1346 34.0758 39.9871 34.1369 39.8333 34.1369Z" fill="#093F68"/>
<path d="M39.8333 90.0992C39.6795 90.0992 39.5321 90.0381 39.4233 89.9294C39.3146 89.8207 39.2535 89.6732 39.2535 89.5194V85.6521C39.2535 85.4983 39.3146 85.3508 39.4233 85.2421C39.5321 85.1334 39.6795 85.0723 39.8333 85.0723C39.9871 85.0723 40.1346 85.1334 40.2433 85.2421C40.352 85.3508 40.4131 85.4983 40.4131 85.6521V89.5194C40.4131 89.6732 40.352 89.8207 40.2433 89.9294C40.1346 90.0381 39.9871 90.0992 39.8333 90.0992Z" fill="#093F68"/>
<path d="M58.1318 41.8917C57.9797 41.891 57.834 41.8307 57.726 41.7235C57.6716 41.6696 57.6285 41.6055 57.599 41.5349C57.5696 41.4642 57.5544 41.3884 57.5544 41.3119C57.5544 41.2353 57.5696 41.1596 57.599 41.0889C57.6285 41.0182 57.6716 40.9541 57.726 40.9002L60.4569 38.1635C60.566 38.0543 60.7141 37.993 60.8685 37.993C61.0229 37.993 61.171 38.0543 61.2802 38.1635C61.3894 38.2727 61.4507 38.4208 61.4507 38.5752C61.4507 38.7296 61.3894 38.8777 61.2802 38.9868L58.5435 41.7235C58.4893 41.7773 58.4251 41.8198 58.3544 41.8486C58.2838 41.8775 58.2081 41.8921 58.1318 41.8917Z" fill="#093F68"/>
<path d="M18.7981 81.2254C18.7218 81.2258 18.6462 81.2112 18.5755 81.1824C18.5049 81.1535 18.4407 81.111 18.3865 81.0573C18.2785 80.9486 18.2179 80.8017 18.2179 80.6485C18.2179 80.4953 18.2785 80.3484 18.3865 80.2397L21.1232 77.503C21.2341 77.408 21.3768 77.3584 21.5227 77.364C21.6686 77.3697 21.807 77.4301 21.9103 77.5334C22.0136 77.6367 22.0741 77.7751 22.0797 77.921C22.0853 78.0669 22.0357 78.2096 21.9407 78.3205L19.204 81.0573C19.096 81.1644 18.9502 81.2248 18.7981 81.2254Z" fill="#093F68"/>
<path d="M69.7539 60.1902H65.8866C65.7328 60.1902 65.5854 60.1291 65.4766 60.0203C65.3679 59.9116 65.3068 59.7641 65.3068 59.6104C65.3068 59.4566 65.3679 59.3091 65.4766 59.2004C65.5854 59.0916 65.7328 59.0305 65.8866 59.0305H69.7539C69.9077 59.0305 70.0552 59.0916 70.1639 59.2004C70.2727 59.3091 70.3338 59.4566 70.3338 59.6104C70.3338 59.7641 70.2727 59.9116 70.1639 60.0203C70.0552 60.1291 69.9077 60.1902 69.7539 60.1902Z" fill="#093F68"/>
<path d="M13.78 60.1902H9.9127C9.75892 60.1902 9.61144 60.1291 9.50271 60.0203C9.39397 59.9116 9.33289 59.7641 9.33289 59.6104C9.33289 59.4566 9.39397 59.3091 9.50271 59.2004C9.61144 59.0916 9.75892 59.0305 9.9127 59.0305H13.78C13.9338 59.0305 14.0813 59.0916 14.19 59.2004C14.2988 59.3091 14.3598 59.4566 14.3598 59.6104C14.3598 59.7641 14.2988 59.9116 14.19 60.0203C14.0813 60.1291 13.9338 60.1902 13.78 60.1902Z" fill="#093F68"/>
<path d="M60.8685 81.2254C60.7922 81.2258 60.7166 81.2112 60.6459 81.1823C60.5753 81.1535 60.511 81.111 60.4569 81.0572L57.726 78.3205C57.618 78.2119 57.5573 78.0649 57.5573 77.9118C57.5573 77.7586 57.618 77.6116 57.726 77.503C57.8346 77.395 57.9815 77.3344 58.1347 77.3344C58.2879 77.3344 58.4349 77.395 58.5435 77.503L61.2802 80.2397C61.3882 80.3483 61.4488 80.4953 61.4488 80.6485C61.4488 80.8016 61.3882 80.9486 61.2802 81.0572C61.226 81.111 61.1618 81.1535 61.0911 81.1823C61.0205 81.2112 60.9448 81.2258 60.8685 81.2254Z" fill="#093F68"/>
<path d="M20.5348 42.8917C20.4585 42.8921 20.3829 42.8775 20.3123 42.8486C20.2416 42.8198 20.1774 42.7773 20.1232 42.7235L17.3865 39.9868C17.3321 39.9329 17.289 39.8688 17.2596 39.7981C17.2301 39.7275 17.215 39.6517 17.215 39.5751C17.215 39.4986 17.2301 39.4228 17.2596 39.3522C17.289 39.2815 17.3321 39.2174 17.3865 39.1635C17.4951 39.0555 17.6421 38.9949 17.7952 38.9949C17.9484 38.9949 18.0954 39.0555 18.204 39.1635L20.9407 41.9002C21.0221 41.9809 21.0778 42.084 21.1006 42.1964C21.1235 42.3088 21.1124 42.4254 21.069 42.5315C21.0256 42.6376 20.9516 42.7285 20.8565 42.7926C20.7615 42.8567 20.6495 42.8912 20.5348 42.8917Z" fill="#093F68"/>
<path d="M44.3153 9.23057H35.3456C34.0679 9.23057 33.0321 10.265 33.0321 11.5411C33.0321 12.8172 34.0679 13.8517 35.3456 13.8517H44.3153C45.5929 13.8517 46.6287 12.8172 46.6287 11.5411C46.6287 10.265 45.5929 9.23057 44.3153 9.23057Z" fill="#57B3BD"/>
<path d="M44.3211 14.4315H35.3456C34.5767 14.4315 33.8393 14.1261 33.2957 13.5824C32.752 13.0387 32.4465 12.3013 32.4465 11.5324C32.4465 10.7636 32.752 10.0262 33.2957 9.4825C33.8393 8.93882 34.5767 8.63338 35.3456 8.63338H44.3211C45.0899 8.63338 45.8273 8.93882 46.371 9.4825C46.9147 10.0262 47.2201 10.7636 47.2201 11.5324C47.2201 12.3013 46.9147 13.0387 46.371 13.5824C45.8273 14.1261 45.0899 14.4315 44.3211 14.4315ZM35.3456 9.79301C34.8843 9.79301 34.4418 9.97627 34.1156 10.3025C33.7894 10.6287 33.6062 11.0711 33.6062 11.5324C33.6062 11.9938 33.7894 12.4362 34.1156 12.7624C34.4418 13.0886 34.8843 13.2719 35.3456 13.2719H44.3211C44.7824 13.2719 45.2248 13.0886 45.551 12.7624C45.8772 12.4362 46.0605 11.9938 46.0605 11.5324C46.0605 11.0711 45.8772 10.6287 45.551 10.3025C45.2248 9.97627 44.7824 9.79301 44.3211 9.79301H35.3456Z" fill="#093F68"/>
<path d="M39.8333 61.3498C39.5327 61.3501 39.2438 61.2337 39.0274 61.0251L28.7299 51.1161C28.5077 50.9024 28.3795 50.6091 28.3735 50.3009C28.3676 49.9926 28.4843 49.6946 28.698 49.4724C28.9118 49.2502 29.205 49.122 29.5133 49.116C29.8216 49.11 30.1196 49.2267 30.3418 49.4405L40.1 58.8334L59.9122 50.8842C60.1982 50.7696 60.518 50.7734 60.8013 50.8946C61.0845 51.0159 61.308 51.2447 61.4226 51.5307C61.5371 51.8167 61.5334 52.1365 61.4121 52.4198C61.2909 52.703 61.0621 52.9265 60.7761 53.0411L40.2624 61.2686C40.1254 61.3212 39.98 61.3487 39.8333 61.3498Z" fill="#F56132"/>
</svg>
